<?xml-stylesheet type="text/css" href="cms.css" ?>
<svg xmlns="http://www.w3.org/2000/svg" version="1.1" viewBox="0 0 190 100">
	<filter id="shadow" width="150%" height="150%">
		<feOffset result="offOut" in="SourceGraphic" dx="1" dy="1"/>
		<feGaussianBlur result="blurOut" in="offOut" stdDeviation="2"/>
		<feBlend in="SourceGraphic" in2="blurOut" mode="normal"/>
	</filter>
	<g filter="url(#shadow)">
		<path fill="#6666ff" d="m24.994,12.934c0.04788,0.06804-6.27,5.6604-15.964,17.284-0.26839,0.67362-0.46065,1.3677-0.57321,2.0836-0.027714,0.75149,0.024215,1.5105,0.15271,2.2507,0.24186,0.81424,0.57353,1.5914,0.98874,2.3316,0.76608,1.038,1.6558,1.9717,2.6387,2.813,2.7873,1.7959,5.809,3.2102,8.9551,4.3518,4.8229,1.3411,9.7403,2.3661,14.678,2.6532,3.3126-0.17956,6.6341-0.4199,10.321-0.26756,0.26257,1.6119,0.35533,3.1659,0.32048,4.4505-0.02864-0.03094-0.03453-0.03692-0.06353-0.05782-0.02394-0.01501,0.0685,0.0064,0.2318,0.07412,0.05929,0.03959,0.11371,0.08563,0.14946,0.12225,0.06233,0.08305,0.10306,0.15597,0.13261,0.2268,0.04401,0.16452,0.06261,0.32048,0.06694,0.45657-0.03269,0.36652-0.08056,0.72419-0.21493,1.0299-0.63378,1.4394-1.3656,2.7565-1.9843,4.2547-0.26582,0.23241-0.53043,0.40992-0.79474,0.54548-0.44976,0.23066-0.86474,0.45067-1.1842,0.69872-0.05349,0.06197-0.10009,0.12905-0.1317,0.1884-0.01887,0.0511-0.02928,0.08986-0.03904,0.14357,0.03637,0.67038,0.16565,1.3877,0.36032,2.105,0.55136,1.5611,1.1269,3.1756,1.4284,4.9676-0.01998,0.28352-0.0708,0.57057-0.16157,0.86323-0.1512,0.36032-0.30649,0.65594-0.30883,0.97014-0.01271,1.5921,0.12905,3.3144-0.08682,5.1236-0.07412,0.18992-0.15242,0.39397-0.28941,0.56173-1.4772,1.8055-3.1547,3.5046-5.0624,4.9903-0.06261,0.03545-0.1252,0.06997,0.05312-0.35964-0.1881-0.33522-0.02863-0.27913,0.1571-0.18462,0.05699,0.03839,0.11695,0.08655,0.17691,0.14622,0.04613,0.05782,0.07799,0.1069,0.10192,0.1512,0.0209,0.04871,0.0372,0.09919,0.05045,0.15854,0.0074,0.06114,0.0083,0.12286,0.0028,0.18402-0.02569,0.10599-0.04815,0.16391-0.09217,0.24601-0.08738,0.11432-0.1624,0.18719-0.23119,0.24368-0.53307,0.29319-1.0345,0.53511-1.567,0.64314-1.1163,0.22711-2.2518,0.22923-3.3646,0.16542-0.58887-0.07145-1.284-0.38481-1.6109-0.2829-1.262,0.39276-3.2468,1.4509-5.3572,2.0799-0.23717-0.1766-0.39752-0.33159-0.51297-0.48226-0.43441-0.56491-0.82633-1.1104-1.121-1.45-0.01363-0.0055,0.0209,0.0064,0.06786,0.01888,0.01215,0.0028,0.04843,0.0037,0.11757-0.0018-1.7504,0.71089-3.6221,1.4276-5.1888,2.4084-1.129,0.84607-2.2846,1.6987-3.2913,2.0377,8.4382,3.517,17.279,7.1276,26.401,9.3174,4.8256-0.38391,9.7241-1.0685,14.542-0.93355,1.1193-1.2569,2.2619-2.7993,3.2621-4.4711,4.298-6.5435,8.3821-13.065,11.332-20.133,0.72654-2.9429,1.1469-5.9443,1.509-9.2717,0.07485-0.09595,0.15196-0.17715,0.26083-0.26695,0.11718-0.0744,0.24268-0.13405,0.35532-0.17396,0.36819-0.07025,0.6071-0.09655,0.69026-0.11484,0.0037-0.0028-0.03103,0.02357-0.02799,0.02062,0.000598-0.000607-0.02421,0.03315-0.01961,0.02633,0.0083-0.02154,0.01206-0.04429,0.01667-0.07679,0.0055-0.07798,0.0046-0.13669-0.0046-0.19491-0.02421-0.07946-0.06657-0.17335-0.12172-0.27081-0.5088-0.63105-1.1356-1.341-1.6995-2.2725-0.0673-0.20383-0.11719-0.43207-0.14138-0.66477-0.000608-0.03075-0.000921-0.05174,0.47705,0.46896,0.33719,0.3697,0.01436,1.1181-0.48084,1.9045-0.07937,0.07973-0.17464,0.16595-0.30316,0.23747-0.07108,0.03922-0.15877,0.06104-0.24647,0.07854-0.0074,0.000921-0.1134,0.0074-0.12021,0.0064-0.0055-0.000304-0.02265-0.000608-0.1512-0.02394-0.01289-0.0028-0.13457-0.05616-0.20488-0.10009-0.97604-1.3475-2.6537-3.8658-2.3641-4.4482,0.25781-0.51886,2.9598-0.30354,4.0659-0.67808,1.1507-0.38981,2.3974-0.96892,3.6947-1.1691,1.3956-0.21502,2.82-0.22303,3.8852-0.22597,0.01667-0.01381,0.04686-0.04337,0.07255-0.07587,0.11946-0.20821,0.22227-0.46746,0.31904-0.77077,0.13231-0.46072,0.29485-0.96303,0.58744-1.5248,0.07716-0.09189,0.16859-0.19105,0.29484-0.27936,0.07034-0.04907,0.15575-0.08296,0.23815-0.1137,0.26764-0.05202,0.38935-0.0836,0.51485-0.13496,0.38104-0.23686,0.8475-0.63316,1.4977-0.82663,0.53905-0.16035,1.0652-0.12935,1.5355-0.05469,3.1768,0.50594,6.2448,1.4194,9.2674,1.2158,5.0896-0.34285,10.306-0.81385,15.477-0.54864,5.2173,0.3703,10.385,0.34285,15.351-0.6167,1.069-0.50555,2.0723-1.1511,3.0347-1.9054,7.2132-4.8167,14.693-9.051,21.239-14.263,0.7341-0.99039,1.3979-2.0231,1.8402-3.1557,0.32282-0.82633,0.55114-1.7215,0.54888-2.5992-0.006-2.1327-0.2306-4.3925,0.0529-6.7188,0.39087-1.6375,1.0577-3.2743,0.87245-4.6911-0.25629-1.9642-0.66832-5.3436-1.6935-5.5938-2.0851-0.50881-7.3251,1.9793-11.598,2.789-0.099-0.03701-0.13155-0.04613-0.20942-0.09601-0.0854-0.05441-0.1134-0.07789-0.1754-0.14592-0.0726-0.07937-0.12701-0.17312-0.17011-0.25554-0.0673-0.18447-0.10281-0.34777-0.12247-0.50427,0.0371-0.9851,0.1187-1.8334,0.0824-2.4979-0.005-0.013627-0.0151-0.034803-0.0174-0.038486,0.006,0.00645,0.0106,0.011417,0.025,0.021913,0.005,0.00276,0.01,0.0046,0.0151,0.00645-10.238-0.0151-20.591,0.0302-30.45,0.42942-0.0167-0.018875-0.059-0.052942-0.0643-0.05598,0.006,0.0009208,0.0393,0.00985,0.0817,0.018138,0.4521,0.034803,1.001,0.056716,1.7343,0.22529,0.0612,0.03554,0.1255,0.073381,0.20866,0.15272,0.0552,0.053678,0.10131,0.12549,0.13911,0.19127,0.006,0.012061,0.0393,0.09152,0.0635,0.1822,0.003,0.010588,0.0121,0.13382,0.00092,0.23437-0.00092,0.011325-0.0273,0.12247-0.0726,0.20413-0.0454,0.081668-0.10434,0.14138-0.15423,0.19052-0.18069,0.12701-0.31149,0.19203-0.42867,0.24042-0.64262,0.19732-1.2066,0.35684-1.5907,0.51409,0.009-0.00737,0.0424-0.044563,0.0514-0.061965,0.0234-0.04309,0.0167-0.031028,0.0348-0.077893-0.14061,3.1867-0.51409,6.5653-1.5423,9.7724-0.44832,1.3994-1.2346,2.7119-2.1494,3.8966-0.471,0.61087-1.0335,1.2036-1.7207,1.5536-2.7119,1.3782-5.5606,2.2129-7.9005,2.9765-0.28049,0.86641-0.61616,1.7139-1.1121,2.4828-0.26687,0.41431-0.64111,0.76661-1.0327,1.1008-0.52242,0.32055-1.0509,0.55114-1.5793,0.72956-2.3248,0.44303-5.014,0.28124-6.7989,0.54737-1.0736,0.15952-2.5576,1.0985-3.9737,1.2535-4.2171,0.46042-8.5227,0.3576-12.361,1.6761-3.5185,1.2089-6.8526,3.635-10.723,3.9472-7.8512,0.63483-15.862-0.13685-23.661-1.8447-1.028-0.22529-2.082-0.65169-2.9006-1.3843-2.6072-2.3331-4.6723-5.1002-7.1932-7.1407-0.62017-0.502-1.2288-1.0146-1.7649-1.6466-0.22386-0.34248-0.4196-0.72277-0.56907-1.1325-0.06675-0.28502-0.12905-0.59953-0.10781-0.9042,0.03223-0.4574,0.11877-0.91025,0.31246-1.311,0.66243-1.3714,1.575-2.5909,2.5448-3.7083,0.26287-0.30317,0.75958-0.39314,0.72003-0.32433-0.06381,0.11038-1.2995,0.01206-2.1136-0.27142-1.4031-0.59121-2.7536-1.1484-4.0512-1.4553-0.07973,0.000607-0.16745,0.01059-0.2454,0.0279-0.17396,0.06196-0.37007,0.16179-0.54789,0.27595-1.5445,1.5204-3.0643,3.2623-4.9446,4.8333-0.269,0.12929-0.54903,0.23512-0.85522,0.31375-0.14531,0.02421-0.30067,0.04005-0.82754-0.12021,0.19165-2.1758,0.61457-3.9714,1.3615-5.6589,0.12194-0.27595,0.28766-0.59877,0.58062-0.7583,2.5288-1.376,5.208-2.3248,8.021-3.2335,0.4444,0.04539,0.88916,0.14138,1.305,0.27897,0.69668,0.33568,1.3565,0.71974,1.8969,1.2119,1.2247,1.1144,2.3354,2.2507,3.5501,3.0801,0.22945,0.08922,0.47456,0.15725,0.70908,0.19506,0.12082,0.0074,0.2076,0.0028,0.33553-0.01961,2.1927-0.90799,6.9752-2.8147,7.4717-2.4851,0.34051,0.22529-2.6033,2.6098-3.5897,3.8073-0.23717,0.38179-0.42882,0.75981-0.57526,1.1575-0.05469,0.2321-0.08397,0.46949-0.08415,0.69932,0.03867,0.34928,0.11982,0.70008,0.2389,1.0395,0.21796,0.44984,0.39865,0.99493,0.81628,1.2792,4.7537,3.2358,9.9249,6.2289,15.406,8.0638,1.4941,0.50049,3.186,0.43547,4.8108,0.25175,12.731-1.4364,25.505-1.8356,37.78-2.6899,0.09526-0.10433,0.17994-0.21849,0.25252-0.34021,0.10736-0.24419,0.18825-0.51561,0.24344-0.80214,0.06804-1.283,0.07412-2.6574,0.34928-4.1483,0.09224-0.19883,0.20261-0.38784,0.33719-0.5708,2.389-2.1433,4.8575-4.0258,6.8526-6.1745,0.19355-0.38029,0.34551-0.77871,0.44909-1.1839,0.0438-0.28352,0.0657-0.5587,0.0726-0.73788,0,0-0.003-0.0074-0.004-0.0074-0.0151-0.02339-0.0431-0.05598-0.0794-0.09152-0.30619-0.20261-0.69479-0.38482-1.1098-0.54811-0.80743-0.282-1.6413-0.58441-2.5289-1.0736-0.065-0.06353-0.13382-0.14364-0.19732-0.23739-0.0371-0.06123-0.07108-0.1066-0.10434-0.14138-0.02191-0.01814-0.03324-0.02495-0.05138-0.03407-0.06279-0.01814-0.21018-0.04613-0.5141-0.16405-0.04917-0.0348-0.11642-0.09526-0.17161-0.158-0.05442-0.0801-0.09829-0.16708-0.13004-0.25101-0.04539-0.20186-0.06196-0.37045-0.065-0.54736,0.01059-0.08922,0.01436-0.10887,0.04079-0.1943,0.065-0.12626,0.12398-0.21093,0.17994-0.27822,1.5756-1.0917,3.1284-1.9694,4.3797-2.6559-0.008,0.09152,0.00091,0.16708,0,0.15952-0.31-0.2725-1.933-0.7472-1.383-1.3914,1.693-1.9861,4.393-2.3006,6.143-3.2879,0.006-0.00985,0.0113-0.020348,0.008-0.00985,0.00092-0.00737-0.00061,0.02265-0.00061,0.02265,0,0.0009207,0.006,0.025688,0.005,0.020348-0.00092-0.0006076-0.003-0.00276-0.009-0.00985-0.0447-0.042353-0.10206-0.083878-0.1754-0.12701-0.0657-0.033238-0.13382-0.062793-0.49142-0.56853,11.682-1.1378,22.967-3.1375,34.34-2.3127,3.7227,0.2699,7.3501,1.1333,11.038,2.2031,1.1529,0.33492,2.0624,1.1106,3.0914,1.4493,0.3765,0.049167,0.7477,0.05819,1.1182,0.023386,2.2371-0.6895,4.5294-1.5143,7.2594-1.9294,0.21699,0.45815,0.25857,0.72049,0.26915,0.99267-0.0242,0.28577-0.0831,0.56702-0.16935,0.83314-0.62524,1.0826-1.3329,1.9951-1.8447,2.8661-0.0325,0.1134-0.0529,0.22303-0.062,0.33416,0.004,0.095258,0.0151,0.1754,0.037,0.26839,0.0219,0.06353,0.0492,0.12398,0.0756,0.16935,0.028,0.037013,0.0544,0.066568,0.0953,0.10206,0.0469,0.032502,0.12323,0.072553,0.19657,0.10131,0.43093,0.087745,0.96393,0.15499,1.5952,0.35231,0.099,0.060491,0.20186,0.13911,0.29107,0.22378,0.0869,0.10357,0.15649,0.21169,0.21547,0.32585,0.0605,0.16632,0.10055,0.3387,0.12096,0.50049,0.0136,4.3245,0.19657,8.7646-1.0947,12.912-0.81045,2.603-2.5251,4.9036-4.4038,6.8443-4.3615,4.5074-9.662,8.1091-15.054,11.296-0.44304,0.26166-0.96544,0.41733-1.2285,0.66598-0.96696,0.91282-1.8855,1.8842-3.0105,2.5914-0.54434,0.34263-1.1764,0.60307-1.8099,0.71263-1.8908,0.32637-4.2496-0.3322-5.6074,0.19642-5.0782,1.9787-12.245,5.8329-18.885,7.5706-6.154,0.82128-12.422,1.7093-18.656,1.0047-1.069-0.12111-1.6247-1.3444-2.4405-1.6701-0.502-0.2008-1.1507-0.13881-1.7517-0.06408-2.597,0.32335-5.2408,0.82452-7.7032,0.86799,0.09601-0.26462,0.10055-0.23921,0.09829-0.25463-0.000607-0.0028,0.0064,0.01004,0.01436,0.0221,0.06574,0.07651,0.15952,0.18107,0.28049,0.25342,1.134,0.67218,2.3701,1.3038,3.5783,2.2072,0.05221,0.07918,0.10055,0.17396,0.13987,0.28502,0.0151,0.06758,0.01887,0.09624,0.02265,0.17692-0.0064,0.06611-0.0083,0.07964-0.02191,0.1326-0.0279,0.07117-0.07485,0.15294-0.10584,0.19634-0.86036,0.67634-1.6822,1.205-2.3157,1.7129,0.000608-0.0028,0.0028-0.01123,0.0074-0.0313-0.17162,3.9208-0.49898,7.9596-1.7986,11.698-1.3472,3.8746-3.6614,7.3636-6.0588,10.702-4.1453,4.7376-9.4292,8.3381-13.482,12.735-1.0229,1.1098-0.46798,3.0333-1.0267,4.4626-0.13382,0.34202-0.38331,0.66424-0.64942,0.94889-0.11567,0.12316-0.27293,0.24367-0.42867,0.31723-0.49043,0.23029-1.0318,0.42906-1.5607,0.47251-1.7539,0.14319-3.512-0.03278-5.2166-0.35941-2.0776-0.39782-4.1667-0.58266-6.2777-0.53397-4.2535,0.38482-8.5543,0.63998-12.859,0.1766-4.3427-1.2743-8.4592-3.1343-12.381-5.3341-2.6047-1.5173-5.2343-2.9727-7.7074-4.2753-0.56052,0.22855-1.1393,0.47131-1.7589,0.71875-0.176-0.4707-0.15332-0.4834-0.14621-0.48786-0.12376,0.59477-1.1913,1.1367-0.85288,0.9182,1.6172-1.0446,3.5829-1.4075,5.0893-2.445,2.2902-1.577,4.1287-3.8507,6.26-5.798,0.1568-0.14357,0.41846-0.09632,0.63703-0.10933,0.26694,0.01805,0.52982,0.06859,0.77848,0.14297,0.6027,0.24896,1.1677,0.48226,1.7262,0.61072,0.20405,0.0083,0.4078-0.0055,0.6089-0.04171,0.52778-0.18719,1.0838-0.39336,1.5378-0.75043,1.6769-1.3198,3.2483-2.8844,5.1301-4.1126,0.08213-0.03425,0.168-0.0685,0.20882-0.08029,0.68632-0.85265,1.3192-1.8361,2.1597-2.7584,0.27225-0.2377,0.53391-0.47902,0.71263-0.74302,0.06583-0.09716,0.10599-0.21237,0.1252-0.32842,0.02569-0.15619,0.03747-0.3951,0.10009-0.61926,0.16543-0.3393,0.36743-0.63552,0.58857-0.90815,0.51508-0.5593,1.0166-1.1054,1.3886-1.6682,0.01869-0.05616,0.03278-0.1137,0.03839-0.15741-0.01648-0.33075-0.07559-0.67603-0.16829-1.0174-0.86557-1.8402-1.9258-3.6679-2.5348-5.698-0.1007-0.33515-0.05101-0.69071-0.1063-0.94942-0.1-0.138-0.18-0.265-0.28-0.392-0.715-0.63-1.532-1.219-2.302-1.966-0.0499-0.09032-0.09208-0.18432-0.12633-0.29591-0.01482-0.08102-0.02035-0.1701-0.01722-0.25577,0.02127-0.14054,0.05616-0.27527,0.10811-0.40787,0.06233-0.11424,0.1385-0.22001,0.22355-0.31451,0.24186-0.20315,0.45332-0.37212,0.60482-0.54842,0.04484-0.08093,0.08001-0.16717,0.10569-0.25629,0.02633-0.15008,0.01363-0.32669,0.08038-0.56022,0.03536-0.12437,0.1122-0.23951,0.20549-0.30596,1.4294-1.0183,2.9911-1.834,4.3313-2.7542,0.01243-0.02016,0.02265-0.04171,0.02744-0.05441-0.217-1.298-0.544-2.652-0.867-3.888-8.492-0.313-17.023-1.44-25.325-3.708-2.4249-1.04-4.7444-2.31-6.8834-3.872-0.629-0.629-1.1762-1.324-1.647-2.074-0.5933-1.251-1.0315-2.563-1.3381-3.912-0.1923-1.378-0.282-2.769-0.2008-4.181,0.031949-0.0998,0.068225-0.2011,0.12429-0.29636,0.034527-0.05745,0.086548-0.11265,0.14032-0.16557,0.051652-0.04079,0.10925-0.07633,0.1695-0.10736,0.14349-0.04834,0.28411-0.07412,0.42261-0.08765,0.2814-0.0151,0.55107-0.04383,0.80208-0.1066,0.1261-0.0522,0.24662-0.11718,0.35881-0.19506,0.15333-0.13533,0.29213-0.29258,0.41438-0.46117,2.4382-4.0939,5.2452-7.9602,8.5416-11.419,1.2625-1.0925,2.5767-2.1244,3.8752-3.0513,0.0055-0.29333,0.04493-0.58365,0.11726-0.86792,0.08857-0.23285,0.20375-0.45664,0.34489-0.66455,0.15687-0.18069,0.33318-0.34096,0.52748-0.48007,4.789-1.8545,7.41-2.5818,7.415-2.5629,0.0055,0.01887-2.603,0.784-7.3508,2.662-0.18167,0.13154-0.34762,0.28502-0.49354,0.45512-0.13109,0.19657-0.238,0.40675-0.32101,0.63053-0.06675,0.26839-0.10214,0.54358-0.10539,0.82104-1.3455,1.0486-2.6473,2.0836-3.8989,3.1806-3.2618,3.4535-6.0372,7.3123-8.4592,11.421-0.13586,0.18901-0.28737,0.36214-0.46398,0.5194-0.13199,0.09223-0.27315,0.16935-0.42171,0.23134-0.29417,0.07633-0.58448,0.10811-0.86535,0.12398-0.12224,0.01206-0.2383,0.03407-0.34225,0.06951-0.038118,0.0197-0.074394,0.04235-0.10955,0.06951-0.032778,0.0325-0.067673,0.06878-0.0936,0.11265-0.039315,0.06731-0.069699,0.1512-0.096013,0.23512-0.067028,1.3412,0.026609,2.7096,0.22121,4.0697,0.30506,1.3215,0.73887,2.6056,1.3221,3.8259,0.45809,0.7236,0.99025,1.3943,1.5939,1.9943,2.108,1.528,4.4,2.7745,6.8087,3.7981,8.256,2.2306,16.755,3.3301,25.426,3.6825,0.47728,1.4479,0.81129,2.8147,1.0325,4.2765-0.02182,0.0708-0.04815,0.12875-0.08066,0.18372-1.4739,1.0507-3.028,1.8746-4.3637,2.8153-0.06583,0.04631-0.11098,0.12429-0.12724,0.18454-0.02661,0.09958-0.02633,0.30272-0.06178,0.50798-0.03784,0.12905-0.08885,0.25372-0.15415,0.37151-0.22205,0.26136-0.46012,0.45331-0.65941,0.62046-0.05662,0.06316-0.10425,0.12906-0.14297,0.20058-0.03361,0.0871-0.05755,0.18099-0.07117,0.27315-0.000921,0.04346,0.000304,0.08351,0.0092,0.12996,0.01565,0.05138,0.04309,0.1131,0.07624,0.17274,0.67157,0.63696,1.4851,1.2199,2.2746,1.9163,0.11719,0.14946,0.2256,0.31836,0.31361,0.50298,0.08333,0.39155,0.03932,0.73146,0.13086,1.0321,0.58206,1.9102,1.6301,3.7172,2.5324,5.6304,0.10336,0.3774,0.17124,0.76631,0.19076,1.1798-0.0139,0.10335-0.0348,0.18991-0.06261,0.27466-0.44568,0.69343-0.96099,1.2575-1.4648,1.8065-0.20141,0.24926-0.37741,0.50827-0.50616,0.77197-0.04373,0.15832-0.04291,0.32252-0.08038,0.5538-0.02596,0.16095-0.08443,0.32895-0.17509,0.4645-0.22742,0.34081-0.52007,0.60837-0.80327,0.85672-0.74953,0.81779-1.3975,1.8284-2.212,2.8059-0.11756,0.05018-0.18901,0.07909-0.2637,0.11038-1.7667,1.16-3.3496,2.6535-5.0539,4.0856-0.52831,0.32751-1.0874,0.60777-1.6919,0.82126-0.24926,0.04512-0.50177,0.06289-0.75482,0.05313-0.67066-0.1509-1.2741-0.39812-1.8393-0.63082-0.20911-0.06233-0.41528-0.10192-0.62463-0.11575-0.16095,0.0098-0.3644-0.02863-0.48257,0.08443-1.9305,1.8481-3.7866,4.1357-6.1398,5.7565-1.598,1.1003-3.5731,1.6828-5.5355,1.5661-0.36766-0.02191,0.69606-0.31164,1.2914-0.01915-0.0221,0.01353-0.02946,0.01703-0.24277-0.42852,0.54404-0.22326,1.1226-0.46722,1.7241-0.71232,2.8706,1.3322,5.5187,2.7917,8.1261,4.3043,3.9094,2.1839,7.9698,4.0099,12.233,5.2526,4.191,0.44447,8.433,0.18515,12.706-0.20851,2.1606-0.05313,4.3197,0.13291,6.4374,0.53481,1.6654,0.31663,3.362,0.48113,5.0046,0.34588,0.4884-0.04023,0.95744-0.21826,1.3756-0.41316,0.11075-0.05175,0.20851-0.12732,0.29583-0.22091,0.20338-0.21918,0.40977-0.47993,0.5277-0.78408,0.51335-1.3266-0.01731-3.1623,0.96167-4.2556,4.2715-4.7656,9.4964-8.3813,13.584-13.068,2.3611-3.297,4.6322-6.7333,5.9439-10.526,1.2679-3.6659,1.5831-7.6244,1.7525-11.58,0.01593-0.07034,0.03554-0.12762,0.05819-0.17722,0.85279-0.75693,1.6829-1.293,2.3739-1.813,0.01059-0.01501,0.000921,0.0046,0.000608,0.0095-0.0055,0.02633-0.0028,0.01243-0.0064,0.05046,0.0028,0.02339-0.0028-0.0046,0,0.0074-0.0055-0.01271-0.01584-0.03517-0.03628-0.06583-0.99341-0.71082-2.2227-1.3311-3.4339-2.0555-0.16103-0.09655-0.29561-0.2448-0.44379-0.42081-0.03849-0.06197-0.07182-0.12755-0.10357-0.2126-0.0151-0.065-0.01888-0.09014,0.07338-0.40667,2.8442-0.23746,5.4638-0.74127,8.119-1.0736,0.64792-0.08056,1.3661-0.16534,2.0231,0.09276,1.0267,0.40282,1.6149,1.6134,2.5319,1.702,5.9189,0.57231,12.125-0.26491,18.229-1.0874,6.529-1.7176,13.636-5.584,18.868-7.5931,1.475-0.56672,3.8043,0.10811,5.5802-0.19785,0.57005-0.09866,1.1144-0.32487,1.6035-0.63378,1.035-0.65441,1.8878-1.5793,2.7988-2.4169,0.48613-0.44719,1.0169-0.59657,1.4599-0.85914,5.3202-3.1516,10.547-6.7155,14.832-11.149,1.8198-1.884,3.4762-4.1188,4.2421-6.5933,1.227-3.9676,1.0516-8.3322,1.035-12.573-0.0106-0.09299-0.028-0.1701-0.0544-0.24495-0.0212-0.03932-0.0454-0.07716-0.0695-0.10509-0.0287-0.02569-0.0553-0.04456-0.0937-0.06878-0.36819-0.1066-0.87397-0.16935-1.4682-0.2941-0.15121-0.05966-0.28956-0.13231-0.44152-0.23588-0.093-0.082405-0.18599-0.18371-0.2631-0.28956-0.0756-0.1308-0.1308-0.25554-0.1754-0.38482-0.0378-0.16179-0.062-0.33946-0.068-0.50502,0.0144-0.19505,0.0492-0.38709,0.10055-0.56929,0.63355-1.1068,1.3321-2.0095,1.8545-2.9069,0.0605-0.18599,0.099-0.3697,0.11567-0.55719-0.006-0.17313-0.0348-0.35079,0.0643-0.32207-2.0012,0.53224-4.2663,1.3518-6.6538,2.0821-0.47024,0.044563-0.94201,0.033975-1.4032-0.026517-1.2066-0.39314-2.1978-1.1968-3.2963-1.5136-3.3757-0.97376-7.1278-1.8613-10.865-2.1297-11.098-0.79685-22.365,1.2134-33.291,1.6338-0.17692-0.43849-0.0673-0.39086,0.0393-0.33719,0.13911,0.081668,0.282,0.18598,0.41506,0.31299,0.0628,0.07863,0.12172,0.16935,0.1686,0.26688,0.0226,0.062793,0.0461,0.1565,0.0566,0.22983,0.003,0.076328-0.006,0.18296-0.0189,0.25024-0.0379,0.12021-0.0817,0.2132-0.13458,0.30166-2.1093,1.2913-4.3668,1.8371-6.0414,2.4987-0.41279,0.16331,0.83919,0.76586,1.4296,1.478,0.003,0.00737,0.0167,0.098287,0.0129,0.2064-1.6776,1.2989-3.2297,2.1781-4.5883,3.0967-0.01667,0.01961-0.02191,0.02873-0.01059,0.0028,0.01289-0.04769,0.0083-0.02725,0.01593-0.07633,0.0037,0.08388,0.01289,0.17463,0.02339,0.22605-0.00092-0.0028-0.0074-0.01206-0.01436-0.02118-0.0174-0.01814-0.04309-0.03849-0.04466-0.04005-0.0098-0.0083,0.15272,0.02191,0.39162,0.09753,0.10206,0.05138,0.20338,0.11794,0.28578,0.18522,0.10962,0.1119,0.20035,0.23059,0.27065,0.34399,0.0028,0.0037,0.01059,0.01436,0.0302,0.03397,0.62674,0.3251,1.4168,0.61012,2.2401,0.89741,0.45815,0.17917,0.91705,0.39539,1.3896,0.71141,0.093,0.08922,0.18296,0.19203,0.26763,0.31829,0.0431,0.08388,0.0937,0.1633,0.10056,0.25402,0.0325,0.41657-0.0136,0.77946-0.065,1.1083-0.13079,0.51183-0.31601,0.99795-0.5519,1.4622-2.2046,2.3989-4.6836,4.2927-6.9252,6.2954-0.07863,0.1066-0.14894,0.22756-0.20715,0.35458-0.20186,1.1696-0.20563,2.5123-0.28351,3.9381-0.07108,0.36289-0.17917,0.72579-0.33794,1.0857-0.12172,0.20412-0.2631,0.39464-0.42413,0.56853-12.939,1.1204-25.679,1.5362-38.329,2.9765-1.6905,0.19279-3.4872,0.27142-5.1389-0.27595-5.6595-1.8742-10.932-4.9096-15.866-8.3231-0.51152-0.35382-0.72918-1.0048-1.0062-1.5748-0.15242-0.43546-0.2569-0.88455-0.30922-1.351,0.000921-0.34853,0.04254-0.68572,0.1193-1.0169,0.18576-0.5088,0.42973-0.99341,0.70228-1.4327,1.0918-1.3298,3.6337-3.1398,3.468-2.9644-0.26695,0.28124-3.9251,2.1547-6.3426,3.1413-0.1952,0.03398-0.43562,0.04917-0.64172,0.03701-0.35238-0.05745-0.71263-0.09152-1.0053-0.27368-1.4787-0.92008-2.6236-2.1637-3.797-3.2328-0.48968-0.44682-1.0472-0.76586-1.6048-1.035-0.33424-0.10962-0.66152-0.17918-1.0032-0.21396-2.4069,0.84675-5.0293,1.816-7.2915,2.975-0.17578,0.08995-0.30452,0.31526-0.39721,0.52847-0.65442,1.5037-1.0555,3.1935-1.4808,4.4938-0.28472-0.16784-0.19876-0.17615-0.10486-0.19204,0.1881-0.04834,0.38626-0.12323,0.57647-0.21622,1.6172-1.3707,3.1121-3.0884,4.8374-4.7735,0.26733-0.17011,0.54169-0.30922,0.86413-0.42413,0.18077-0.03858,0.35586-0.05902,0.54071-0.06197,1.6069,0.36668,3.023,0.94881,4.3776,1.5189,0.74771,0.26008,2.5185,0.58139,2.696,0.85054,0.12731,0.19429-0.67272,1.0872-0.92348,1.3767-0.91162,1.0531-1.7527,2.1887-2.3437,3.3983-0.14908,0.30544-0.21554,0.66681-0.2389,0.98435-0.01363,0.18296,0.02421,0.37196,0.07034,0.57079,0.10131,0.27671,0.23981,0.54586,0.41521,0.815,0.43237,0.50956,0.97452,0.96318,1.5112,1.3994,2.7081,2.2023,4.8155,4.9762,7.2265,7.155,0.69637,0.62901,1.6568,1.0297,2.6322,1.2422,7.5553,1.6428,15.473,2.3853,23.235,1.7767,3.5998-0.28275,6.847-2.6612,10.436-3.8898,4.0652-1.3918,8.4645-1.2958,12.573-1.7419,1.3246-0.14365,2.7096-1.0592,3.9185-1.2459,1.9505-0.30014,4.5838-0.12398,6.7082-0.5277,0.4574-0.15423,0.88304-0.34022,1.2474-0.56249,0.29182-0.24873,0.58365-0.52316,0.79988-0.86035,0.41279-0.64414,0.70764-1.3858,0.94806-2.1275,3.0309-1.5204,5.8705-2.3694,8.3541-3.6214,0.58895-0.29712,1.0675-0.80593,1.4697-1.3283,0.82104-1.0675,1.5521-2.2779,1.971-3.5874,0.97376-3.0475,1.3367-6.3105,1.5196-9.721,0.0279-0.077157,0.0309-0.096022,0.0726-0.16406,0.0469-0.077156,0.13382-0.16784,0.19657-0.22303,0.73183-0.34626,1.351-0.52317,1.8848-0.68496,0.0643-0.026425,0.10962-0.049167,0.0907-0.033975-0.0189,0.018138-0.046,0.044655-0.0703,0.090691-0.0325,0.061965-0.0469,0.12323-0.0469,0.13457-0.006,0.07863-0.003,0.15196,0.00092,0.1633,0.0189,0.064266,0.028,0.092993,0.0348,0.10434,0.0181,0.028727,0.0363,0.061965,0.0612,0.084706,0.0378,0.034803,0.0454,0.036276,0.0506,0.038578-0.29863-0.043826-0.80895-0.06353-1.4123-0.11416-0.13608-0.027898-0.27746-0.071816-0.43774-0.14666-0.0589-0.037013-0.1512-0.10963-0.21319-0.17313,10.606-2.2076,21.035-2.2605,31.578-2.2084,0.10434,0.03554,0.20413,0.082405,0.29788,0.1391,0.0937,0.071816,0.17162,0.14667,0.24041,0.22983,0.0772,0.11643,0.13231,0.22379,0.18069,0.344,0.0953,1.0826,0.01,1.9891-0.0257,2.7618,0.007,0.060491,0.0174,0.11114,0.0234,0.13231-0.00092-0.00276-0.008-0.015928-0.0242-0.031765-0.0273-0.027253-0.007-0.012798-0.0476-0.038486-0.0318-0.019611-0.009-0.00552-0.0537-0.023386,3.6055-0.80592,9.3452-3.4482,11.913-2.6415,1.3813,0.4332,1.8969,4.1937,2.1509,6.2924,0.22227,1.8341-0.49292,3.5374-0.87849,5.1568-0.25328,2.0556-0.0219,4.2375-0.0219,6.5064,0,1.0138-0.25781,2.0269-0.62221,2.9621-0.48386,1.2421-1.2225,2.3921-2.014,3.4611-6.8405,5.4706-14.335,9.7165-21.386,14.422-1.0244,0.80327-2.1441,1.5233-3.356,2.0959-5.2937,1.0324-10.599,1.0617-15.836,0.69048-5.113-0.26461-10.19,0.21055-15.32,0.54215-3.2381,0.20942-6.4217-0.73388-9.4443-1.2211-0.41203-0.06675-0.83163-0.07412-1.1469,0.01979-0.37045,0.11046-0.76283,0.42466-1.2958,0.75073-0.25252,0.10366-0.52544,0.176-0.66076,0.1934,0.0099-0.0037,0.01887-0.0074,0.02652-0.01243,0.01363-0.0098,0.0055-0.0028-0.0092,0.01363-0.14214,0.2885-0.27368,0.69812-0.40599,1.1585-0.11492,0.35941-0.2699,0.74537-0.502,1.1367-0.10207,0.12224-0.21547,0.23331-0.35761,0.34112-1.6557,0.18311-3.0203,0.19195-4.3396,0.39427-1.1824,0.18129-2.2605,0.7093-3.4868,1.1175-1.2913,0.42995-3.4029-0.06353-3.483,0.2129-0.09152,0.31632,1.3971,1.935,2.0564,2.9435-0.04539-0.02689-0.11265-0.05644-0.12626-0.05819-0.11944-0.01538-0.12323-0.0186-0.11794-0.0186,0.0064,0.000599-0.06657,0.0028-0.07412,0.0037-0.04005,0.0092-0.07485,0.01777-0.10358,0.03186-0.02035,0.01031-0.01667,0.0074-0.0064-0.0046,0.30845-0.5147,0.59348-1.1742,1.4508-2.2471,0.48008,0.56255,0.48008,0.5835,0.48008,0.59476,0.01132,0.09715,0.0325,0.19286,0.06804,0.30445,0.38936,0.62992,0.97829,1.2965,1.6126,2.0992,0.10207,0.18311,0.189,0.38361,0.25629,0.61223,0.02873,0.19226,0.03324,0.38656,0.02035,0.56104-0.02495,0.14682-0.0673,0.29946-0.13003,0.44568-0.04235,0.07467-0.1187,0.18809-0.18448,0.25485-0.05672,0.05699-0.16481,0.13292-0.23588,0.17427-0.43018,0.13434-0.72654,0.16768-0.88681,0.19551-0.02118,0.0074-0.02421,0.0092-0.02725,0.01031,0.0098-0.0094-0.000921,0.0018-0.0055,0.0064-0.16859,2.7878-0.60784,5.9032-1.3646,8.9571-3.04,7.2582-7.2125,13.903-11.448,20.331-1.041,1.7345-2.2628,3.3794-3.9054,4.9727-5.0007-0.10811-9.8638,0.56377-14.853,0.94881-9.4503-2.2716-18.349-5.928-27.355-10.37,1.4234-1.1157,2.5542-1.9456,3.6986-2.799,1.805-1.1015,3.6475-1.8009,5.5901-2.5613,0.0951-0.0092,0.1828-0.0037,0.1949-0.00092,0.07559,0.01657,0.13972,0.03904,0.15362,0.04493,0.66887,0.62901,1.08,1.2014,1.4819,1.7291,0.09511,0.12497,0.18576,0.21055,0.22295,0.24488,1.305-0.65888,3.3419-1.7776,4.82-2.1686,0.53186-0.14055,1.2466,0.21879,1.8036,0.28796,1.0327,0.06261,2.0708,0.06114,3.0489-0.13321,0.45596-0.0906,0.88599-0.29561,1.2436-0.48408,0.02016-0.01611,0.02716-0.02357,0.0092-0.000231-0.0209,0.04309-0.02606,0.05902-0.03784,0.12195-0.00092,0.03269,0.0018,0.06556,0.0074,0.09806,0.0098,0.03195,0.01952,0.0558,0.03103,0.07854,0.0064,0.01059,0.0186,0.02716,0.04217,0.05442,0.0083,0.0064,0.0098,0.0064,0.0046,0.0028-0.04548-0.02339-0.1311-0.05377-0.57058-0.45392,0.29031-0.49028,0.3393-0.51712,0.38808-0.54434,1.7494-1.3593,3.3696-3.0034,4.8126-4.7393,0.0709-0.08535,0.11574-0.20019,0.1624-0.31897,0.17396-1.5244,0.02366-3.188,0.06316-4.9431,0.01003-0.4329,0.22211-0.83926,0.36326-1.1712,0.05699-0.17895,0.09308-0.37801,0.10842-0.58736-0.25871-1.5159-0.80917-3.077-1.3736-4.6954-0.20677-0.77401-0.34792-1.577-0.38126-2.4479,0.02182-0.12429,0.05902-0.25924,0.10479-0.3768,0.08563-0.16035,0.18197-0.29742,0.29213-0.42353,0.47547-0.37204,0.95297-0.62606,1.4042-0.85431,0.2271-0.11492,0.4214-0.24457,0.5717-0.37302,0.48877-1.2985,1.2348-2.6396,1.8337-3.9733,0.114-0.25426,0.14712-0.51622,0.17131-0.75959-0.0018-0.08148-0.0074-0.14198-0.01795-0.1884,0.0028,0.0046,0.0092,0.01538,0.03066,0.03996,0.0037,0.0018,0.02274,0.01676,0.04429,0.02864,0.0139,0.0037-0.05202-0.01188-0.23127-0.07541-0.06261-0.03839-0.09919-0.06703-0.1565-0.12339-0.14084-1.7607-0.22445-3.2749-0.43705-4.6933-2.9193,0.33107-6.242,0.55523-9.5803,0.71974-5.081-0.327-10.015-1.385-14.885-2.769-3.178-1.178-6.246-2.639-9.104-4.508-1.02-0.887-1.9473-1.877-2.743-2.973-0.4353-0.792-0.7847-1.629-1.0342-2.497-0.132-0.802-0.1798-1.605-0.1426-2.416,0.1269-0.764,0.3413-1.513,0.6343-2.23,9.8795-11.647,16.338-17.154,16.386-17.086m10.059,49.354c0.0198-0.18961,0.04024-0.37975,0.06058-0.56997,0.09014-0.05819,0.17986-0.10192,0.26612-0.13524,0.81537-0.10396,1.5743-0.10101,2.2486-0.1816,0.036-0.0163,0.06408-0.0325,0.08471-0.04696,0.01123-0.0099,0.02182-0.02127,0.02864-0.03038,0.0083-0.01418,0.01271-0.02569,0.01713-0.04134,0.01031-0.11423,0.0098-0.23981-0.0046-0.3573-0.01887-0.07476-0.03572-0.15445-0.08305-0.21856-0.17835-0.24367-0.43502-0.51236-0.64172-0.85318-0.06997-0.19052-0.11726-0.38807-0.14349-0.57828-0.0116-0.21139-0.0028-0.42996,0.03425-0.64232,0.4208-1.196,0.91546-2.3221,1.2814-3.3292-0.0055-0.01271,0.0028,0.0064,0.01832,0.02661-0.01004-0.01031,0.0055-0.000608,0.01298,0.01004,0.0046,0.0064-0.0083-0.0028-0.02928-0.0055-0.64791,0.0836-1.3655,0.22651-2.1485,0.25993-0.07799-0.01777-0.1571-0.04364-0.24155-0.08471-0.04521-0.02928-0.09097-0.06206-0.12549-0.101-0.03692-0.04134-0.06445-0.09069-0.01363-0.05138-2.857-0.17-5.775-0.726-8.615-1.576-8.998-4.117-17.911-8.318-26.429-13.268-0.31397-0.45-0.58508-0.933-0.80358-1.439-0.16716-0.55114-0.27353-1.1167-0.32252-1.6905-0.13382-3.164-0.24186-6.3461,0.19317-9.5131,0.20314-0.55342,0.46246-1.0857,0.78082-1.5816,0.47426-0.55341,1.0082-1.0433,1.5897-1.4758,4.8858-2.1207,9.9202-3.8005,14.719-6.1314,0.43381,0.22605,0.89097,0.40523,1.3641,0.52619,0.26635,0.03554,0.53247,0.04235,0.79768,0.01814,0.17093-0.03701,0.33696-0.09069,0.4955-0.16179,0.84524-0.57534,1.6069-1.2679,2.3153-2.0186,2.7365-3.5495,4.048-5.5258,4.0636-5.516,0.01593,0.01059-1.2654,2.008-3.9797,5.5885-0.70847,0.76208-1.4742,1.469-2.3363,2.0647-0.17276,0.07937-0.35201,0.13836-0.53685,0.17918-0.28177,0.0279-0.56529,0.02191-0.84404-0.01363-0.49353-0.12248-0.96605-0.30468-1.4178-0.53603-4.6558,2.3664-9.6913,4.0735-14.512,6.1903-0.56059,0.42111-1.0747,0.8959-1.5253,1.4251-0.30302,0.47705-0.54699,0.98359-0.73955,1.5136-0.41309,3.1012-0.29439,6.2591-0.14879,9.4329,0.04843,0.54434,0.15091,1.0804,0.31126,1.6028,0.20851,0.47781,0.46368,0.9287,0.76457,1.3572,8.4085,4.8345,17.365,9.0242,26.323,13.094,2.8103,0.83336,5.6835,1.3744,8.7076,1.5959,0.07918,0.1004,0.08563,0.11166,0.09189,0.11817,0.0083,0.0092,0.01887,0.01648,0.02983,0.02329,0.02836,0.0139,0.0685,0.02689,0.11281,0.0372,0.65207-0.03628,1.3487-0.17714,2.1284-0.26839,0.04871,0.0083,0.11665,0.02652,0.17449,0.05285,0.03609,0.02247,0.07154,0.05165,0.08148,0.06197,0.03278,0.04042,0.05699,0.08268,0.06233,0.09511-0.36297,1.3215-0.85529,2.4491-1.2499,3.5713-0.02946,0.1698-0.03628,0.33816-0.02624,0.51386,0.02274,0.16187,0.05874,0.31043,0.11159,0.45362,0.15536,0.25426,0.39366,0.49293,0.62047,0.80744,0.07182,0.0992,0.10342,0.22915,0.13502,0.35292,0.0221,0.17509,0.02302,0.34406,0.0046,0.52302-0.01565,0.05754-0.03692,0.12051-0.06703,0.1692-0.03167,0.0511-0.07467,0.09571-0.11809,0.13555-0.06767,0.04843-0.13351,0.08627-0.19642,0.11431-0.82331,0.1125-1.5821,0.11159-2.2672,0.194-0.05874,0.02302-0.10872,0.04751-0.14917,0.07421-0.0064,0.0767-0.01151,0.15355-0.01713,0.23059l-0.29802,0.00092zm7.0742,0c-0.0954-2.4946,0.07439-4.8604,0.2814-7.2171,0.28056-0.79738,0.63348-1.4433,0.97754-2.0543,0.19052-0.36947,0.34792-0.73175,0.43888-1.0655,0.0064-0.0894,0.00092-0.1999-0.01363-0.30263-0.01446-0.05791-0.0348-0.11462-0.06197-0.16807-0.09662-0.1187-0.28737-0.28087-0.53489-0.52302-0.07412-0.10251-0.13668-0.21266-0.1887-0.33522-0.04281-0.15-0.06648-0.29735-0.07531-0.45332,0.40523-0.88183,0.83404-1.5049,1.2301-2.1089,0.1072-0.18817,0.19226-0.36448,0.23829-0.50563,0.000921-0.01335,0.0028,0,0.0028-0.000304-3.9732,0.37892-8.3786,0.55078-12.812,0.54752-3.013-0.262-5.979-0.879-8.854-1.795-3.314-1.391-6.471-3.127-9.395-5.238-1.473-1.348-2.807-2.838-3.9586-4.485-0.5661-1.054-1.0265-2.168-1.3549-3.327-0.1601-1.049-0.1923-2.109-0.1146-3.158,0.1704-0.957,0.4439-1.89,0.8228-2.789,10.52-10.644,17.021-15.846,17.068-15.778,0.04751,0.06804-6.3323,5.3746-16.651,15.982-0.34875,0.84902-0.60005,1.7358-0.75337,2.6446-0.065279,1.0063-0.026056,2.005,0.13351,2.9908,0.3204,1.0947,0.76487,2.1448,1.3165,3.1534,1.119,1.5748,2.4243,3.012,3.8702,4.3146,2.8691,2.0431,5.9706,3.7226,9.2407,5.0707,2.8253,0.88243,5.7121,1.4665,8.6544,1.7054,4.3829-0.0186,8.7877-0.21229,13.552,0.03959,0.0083,0.08093,0.0055,0.1754-0.0028,0.24245-0.09189,0.31065-0.21026,0.56112-0.33666,0.78498-0.42292,0.65116-0.84108,1.2651-1.1089,1.7084,0.0037,0.05966,0.01335,0.12581,0.02928,0.18342,0.0139,0.03425,0.03545,0.07237,0.06114,0.1075,0.14229,0.13344,0.36501,0.32245,0.6083,0.62372,0.06528,0.12754,0.11582,0.26136,0.15211,0.39986,0.02836,0.18484,0.03812,0.3644,0.02725,0.56498-0.13148,0.50971-0.31988,0.94972-0.52839,1.3573-0.34814,0.62455-0.67211,1.2224-0.87207,1.7504-0.20466,2.4388-0.36797,4.8737-0.3012,7.1285l-0.78733,0.0037zm30.414,0c-0.08314-0.71029-0.16935-1.4163-0.25554-2.1095-0.42035-0.58448-0.95939-1.2377-1.4425-2.1004-0.07182-0.2495-0.11567-0.51531-0.13003-0.78409,0.0055-0.09745,0.02643-0.25515,0.06427-0.35261,0.05902-0.14969,0.13231-0.2575,0.20715-0.3585,0.2389-0.24012,0.471-0.41461,0.69101-0.55462,0.64942-0.35352,1.2482-0.67332,1.6716-1.0183,0.04834-0.03959,0.07034-0.0933,0.09069-0.13231,0.01059-0.02919,0.01436-0.04134,0.01887-0.07117,0-0.000921,0-0.01768,0.47025,0.53391,0.3644,0.50269,0.05138,1.4158-0.48386,2.4163-0.0476,0.04788-0.11718,0.10932-0.24344,0.18847-0.01206,0.0083-0.10434,0.04429-0.19808,0.06758-0.01206,0.0028-0.12852,0.01068-0.22378,0.0018-0.01132-0.00092-0.13154-0.0348-0.21698-0.07504-0.01059-0.0046-0.10811-0.06703-0.16557-0.13048-0.06427-0.0697-0.10811-0.13495-0.13608-0.2073-0.06427-0.17071-0.08314-0.32577-0.09224-0.43563,0.05221-0.77523,0.17464-1.4746,0.39314-2.2388,0.19958-0.36183,0.42866-0.68073,0.69252-0.97285,1.5075-1.028,2.8169-2.0463,3.9646-3.2784,0.83767-0.89982,1.5294-2.6594,2.4994-3.0385,1.2739-0.49793,3.5458,0.4902,4.8711,0.2891,0.92009-0.13941,1.7759-1.1116,2.9727-1.0593,6.027,0.2637,11.911,2.243,17.575,2.8552,1.571,0.1698,3.1693-0.31746,4.7418-0.60633,5.6694-1.6124,11.318-3.5639,17.33-4.763,2.5236,0.2578,4.9422,0.57382,7.2526,0.47221,0.35231-0.08618,0.74922-0.15234,1.0093-0.31186,3.8058-2.3366,8.1371-5.03,11.21-8.485,2.2038-2.4783,3.5911-5.5946,4.9021-8.661,1.0486-3.4225,1.7162-6.9297,1.9793-10.49,0.00092-0.16482,0.003-0.3198,0-0.34778-0.002-0.0028,0.0006,0.0028-0.00061,0.000608,0.005,0.0064-0.0159-0.01814-0.0249-0.02569-0.0431-0.03103-0.1066-0.06657-0.19959-0.10736-0.7961-0.189-1.7298-0.33794-2.8222-0.70688-0.0794-0.05598-0.18371-0.14364-0.27821-0.24193-0.059-0.07633-0.11039-0.15725-0.15877-0.25175-0.0643-0.19582-0.0907-0.34097-0.10509-0.47781-0.003-0.22152,0.0226-0.46042,0.0673-0.66682,0.10509-0.30165,0.19733-0.59197,0.38936-0.81802,1.0403-1.2278,2.1539-2.2288,2.9606-3.2789,0.0718-0.16027,0.12777-0.3266,0.16179-0.47856,0.0144-0.13835,0.0159-0.25931,0.004-0.39842-0.0144-0.081668-0.0363-0.17161,0.13079,0.012061-14.975-0.31073-30.571-0.24949-45.052-1.3888-0.007-0.0006077,0.0136,0.00645,0.0612,0.012061,0.46193,0.064266,1.0456,0.10887,1.7865,0.30846,0.0582,0.036276,0.12702,0.081668,0.20338,0.16406,0.0575,0.061228,0.10206,0.13381,0.13306,0.21168,0.0348,0.089218,0.0341,0.11038,0.0469,0.19127,0.004,0.1066-0.01,0.23059-0.0257,0.30695-0.62599,1.1643-1.6572,2.0065-1.7162,2.8532-0.12172,1.7396,0.8596,3.7113,0.95033,5.8532,0.0189,0.43018-0.18448,0.84524-0.34778,1.2573-0.28502,0.51258-0.59877,1.0244-1.001,1.4153-0.70385,0.68345-1.5151,1.3102-2.4042,1.6693-3.6856,1.4848-8.0918,1.4954-10.682,3.6561-1.4962,1.2482-1.0184,3.7892-1.8628,5.5961-0.31904,0.49746-0.69328,0.97905-1.1227,1.4122-0.34022,0.26386-0.71596,0.52696-1.103,0.66153-1.4266,0.49596-3.1133,0.60104-4.2746,0.88909-0.8596,0.2132-1.9868,0.95335-3.0997,0.99115-5.7261,0.1943-11.584-1.1575-16.875-0.05745-2.538,0.52846-4.5407,3.2509-7.3592,3.8179-3.1476,0.63279-6.4419-0.0279-9.5033-0.8286-5.9387-1.5536-11.503-4.2617-17.309-5.1599-2.6594-0.41203-5.4782-0.27519-8.1674-1.0025-0.40372-0.10887-1.3771-0.42791-1.3481-0.84297,0.10721-1.5272,1.4538-4.9928,1.7217-7.2647,0.01271-0.10962-0.02863-0.19505-0.05441-0.2767-0.01538-0.03324-0.03397-0.065-0.04576-0.08093-0.01206-0.01206-0.03213-0.02946-0.03287-0.02873-0.01676-0.0092-0.04245-0.01887-0.06915-0.02569-0.0522-0.0074-0.12256-0.0099-0.2011-0.0046-0.19074,0.03711-0.40108,0.10509-0.60308,0.19506-0.0064,0.0028-0.13639,0.05294-0.1435,0.05441-0.37212-0.0083-0.64466-0.05294-0.89483-0.12096-0.2823-0.11189-0.54192-0.251-0.78559-0.41656-0.37386-0.33266-0.68421-0.69176-0.95328-1.0721-0.69728-1.2845-1.3062-2.5282-2.0126-3.5352-0.1072-0.09152-0.20019-0.15877-0.3139-0.22455-0.11287-0.04769-0.21328-0.07716-0.33349-0.09979-2.2412,0.08093-6.3612,0.02569-6.4483-0.05211-0.05441-0.04834,2.6901-0.28049,4.2216-0.42564,0.49883-0.11039,0.98578-0.26385,1.4367-0.4642,1.8245-0.93445,3.6656-1.8553,5.705-2.6673,0.25728-0.04235,0.50858-0.11189,0.74302-0.20563,0.62615-0.38104,1.2936-0.93596,2.1736-1.3208,0.26582-0.11567,0.57647-0.10131,0.85235-0.10282,0.47841,0.04687,0.98343,0.09601,1.4137,0.29787,1.3204,0.61995,2.4795,1.3495,3.6797,1.7615,0.29175,0.04917,0.58592,0.08093,1.1328,0.16708,1.0076,1.7941,1.7663,3.4845,2.1627,5.2945,0.13109,0.59877,0.0945,1.2384-0.01123,1.8508-0.10009,0.57987-0.32305,1.1507-0.59741,1.6814-0.10191,0.19732-0.37302,0.1633-0.28828,0.1943,4.0365,1.4742,18.252,7.0847,27.989,8.8463,1.8863,0.34096,3.8943,0.41128,5.6362-0.05745,2.3694-0.63809,4.6375-2.2061,7.2654-2.4737,5.2136-0.52998,11.044,0.26158,15.384-1.3548,2.3989-0.89287,4.4114-3.4891,6.1132-5.6702,0.68647-0.88001,1.159-1.9324,1.4455-3.0181,0.4521-1.7169,0.52847-3.5208,0.5587-5.203-0.0055-0.01206,0.0064,0.01132-0.000608-0.000608-0.0028-0.0037-0.01814-0.01814-0.04079-0.0348-0.0801-0.04079-0.18673-0.0801-0.30392-0.1119-0.56551-0.09526-1.1938-0.19052-1.912-0.43018-0.08618-0.05441-0.17389-0.12021-0.27066-0.21168-0.05138-0.06049-0.09375-0.11794-0.13911-0.19279-0.04005-0.08765-0.05819-0.11718-0.07338-0.22227-0.01436-0.09677-0.0055-0.1308,0.0092-0.23362,0.02725-0.09828,0.05966-0.19883,0.10812-0.26612,0.15725-0.22001,0.31904-0.39465,0.49822-0.51335,1.3298-0.87699,2.6612-1.6398,3.6962-2.4646,0.0129-0.02191,0.0167-0.0302,0.0203-0.03849,0.0006-0.0099-0.003,0.01961-0.00092,0.01814-0.0006-0.01436,0.003,0.04079,0.0121,0.08765,0.01,0.02725,0.0189,0.04613,0.0257,0.05745-0.0325-0.0325-0.11038-0.09526-0.21169-0.16633-0.58743-0.34324-1.2172-0.69101-1.9347-1.2542-0.0348-0.060491-0.04309-0.077156-0.06804-0.13836-0.0046-0.011325-0.02339-0.090691-0.03176-0.1822,0-0.00552,0-0.018138,0.01059-0.10206,0.000598-0.012061,0.03176-0.11794,0.07338-0.18448,0.03628-0.058926,0.0801-0.10433,0.12248-0.1391,0.0371-0.031765,0.08922-0.067305,0.14213-0.086916,0.09152-0.033975,0.15725-0.040051,0.21093-0.04309,0.09526,0.00645,0.17389,0.02265,0.24268,0.045392,0.24193,0.13835,0.37726,0.24268,0.35231,0.24268,0.0055,0.0009208-0.01814-0.00644-0.02265-0.00644-0.0476-0.00645-0.09828-0.00921-0.10282-0.00829-0.06804,0.010588-0.13306,0.0302-0.13684,0.032502-0.06574,0.036276-0.1308,0.08397-0.17238,0.13911-0.02725,0.03554-0.05515,0.11341-0.06049,0.13684-0.0028,0.01289-0.0046,0.033975,0.13684-0.28351,1.0252-0.14894,1.7865-0.14515,2.4329-0.4453,2.008-0.93142,3.9548-3.4943,5.869-3.762,5.3693-0.75149,13.667,0.92689,20.068-0.4574,6.3015-1.3616,12.594-3.8542,19.159-3.9555,2.0806-0.032501,3.9646,1.0857,5.8025,1.3223,0.35079,0.045392,0.7462,0.01289,1.1431,0.090691,0.23211,0.081668,0.4574,0.17238,0.64943,0.31224,0.36667,0.26613,0.66606,0.51032,0.97528,0.6706,0.32886,0.10509,0.68344,0.17086,1.0501,0.20337,0.11188,0.0046,0.22378,0.00737,0.57231,0.083141,0.27595,0.49822,0.38708,0.82406,0.62901,1.0494,1.7782,1.6496,3.985,3.0483,6.0361,4.8234,0.15121,0.22379,0.28049,0.46043,0.39086,0.73033,0.0355,0.11718,0.0628,0.22983,0.0847,0.42791-0.006,0.080931-0.0181,0.17161-0.0454,0.2457-0.0264,0.07338-0.0711,0.14516-0.11341,0.20564-0.09,0.10206-0.1769,0.17766-0.2646,0.24041-0.87397,0.34777-1.6527,0.56929-2.2719,0.84902-0.0377,0.0325-0.0718,0.0673-0.0892,0.08995-0.007,0.01289-0.0196,0.03932-0.0242,0.05294-0.20489,3.486-0.63658,7.1172-1.8334,10.496-1.1726,3.3099-2.8608,6.5389-5.1327,9.2243-3.4467,4.0757-7.8075,7.3108-12.273,10.267-0.43093,0.28494-0.86792,0.57971-1.4818,0.75247-1.286,0.36266-2.5788,0.68897-3.7764,1.2338-0.4196,0.29772-0.81576,0.6669-1.1847,1.0809-1.1922,1.7525-2.1857,3.6641-3.105,5.7686-7.6563,3.377-15.509,6.3905-23.655,7.1985-6.2841,0.62342-12.652-0.95894-18.688-0.52748-0.84599,0.06058-1.6413,0.62017-2.5607,0.79239-0.41884,0.01004-0.82332-0.01722-1.2686-0.10486-0.14515-0.05524-0.28805-0.12845-0.42186-0.2191-0.10509-0.09246-0.20338-0.20057-0.28578-0.31458-0.11794-0.22265-0.19581-0.43706-0.25251-0.64557-0.07338-0.33779-0.14894-0.63786-0.24873-0.87268-0.04079-0.06261-0.08471-0.11514-0.1308-0.15854-0.05966-0.04521-0.12549-0.08268-0.20035-0.11552-0.10887-0.03361-0.21924-0.05644-0.08995-0.15445,0.11492-0.20406,0.10811-0.14471,0.08774-0.06371-0.0174,0.04631-0.03931,0.09097-0.0673,0.1382-0.03324,0.04429-0.07108,0.08507-0.13079,0.13639-0.07485,0.04815-0.1444,0.08176-0.21774,0.10782-0.35004,0.05755-0.61994,0.07357-0.76056,0.1075-0.0151,0.0037-0.000921,0.000921,0.01289-0.01179,0.000921-0.0018,0.0037-0.0037,0.02035-0.03158,0,0.000608,0.0046-0.02155,0.0037-0.01473,0,0.02182-0.0046,0.07937-0.03628,0.20406-0.0028,0.0064-0.0064,0.01676-0.04153,0.07964-0.0028,0.0046-0.01059,0.0151-0.06123,0.07182-0.0028,0.0037-0.01363,0.01179-0.08544,0.06077-0.0037,0.0028-0.0151,0.0083-0.09223,0.03545-0.01132,0.0037-0.09527,0.01243-0.16028,0.0092-0.07412-0.01445-0.16708-0.03812-0.20791-0.06786-0.55265-0.40962-1.004-0.82279-1.3525-1.0829-0.01436-0.0028,0.01363,0,0.04456,0.000921,0.01206,0.000607,0.04309-0.0092,0.09829-0.03066,0.0055-0.0018-0.0074,0.0028,0.04309-0.03011,0.0046-0.0028-0.0092,0.0046,0.0348-0.03729,0.01059-0.0097,0.01961-0.02956,0.03407-0.06464-0.158,2.5324-0.42866,5.0692-0.82029,7.5969l-0.67134-0.0018c0.39767-2.5699,0.67513-5.1667,0.84297-7.793,0.02495-0.06381,0.06427-0.13466,0.07338-0.14531,0.04834-0.05469,0.05672-0.06261,0.06123-0.0662,0.05819-0.04254,0.06804-0.04898,0.07338-0.05138,0.07706-0.03241,0.15952-0.05138,0.17161-0.05165,0.05902-0.0028,0.11794,0.0037,0.13231,0.0064,0.66681,0.4078,1.1386,0.82921,1.5438,1.144,0.01206,0.0095-0.01059-0.000221-0.01814-0.000921-0.04152-0.00092-0.07716,0.0018-0.08774,0.0064-0.06574,0.02863-0.05819,0.02127-0.06279,0.02421-0.06123,0.04613-0.05598,0.03839-0.05893,0.04226-0.04079,0.05082-0.0371,0.04079-0.03931,0.04539-0.02652,0.05405-0.02725,0.05202-0.02421,0.04604-0.01436,0.05902-0.01436,0.04898-0.01206,0.0028,0.0055-0.05405,0.02339-0.13616,0.04309-0.19317,0.03784-0.07734,0.06951-0.12459,0.10508-0.16859,0.06353-0.06086,0.1255-0.11968,0.17389-0.13412,0.38331-0.11574,0.68269-0.12906,0.88077-0.15861,0.0064-0.0018,0.01132-0.0037,0.0064-0.000534-0.02035,0.0197-0.02339,0.02357-0.02569,0.02716-0.0083,0.0139-0.01206,0.02302-0.01593,0.0325-0.0046,0.0233-0.0037,0.02302,0.11416-0.24072,0.42564-0.06141,0.60709-0.02385,0.78325,0.03167,0.14061,0.0615,0.27821,0.14116,0.40523,0.23717,0.10508,0.10183,0.19354,0.21055,0.26764,0.32245,0.16783,0.38746,0.25477,0.74839,0.33114,1.0711,0.03775,0.16278,0.09752,0.30891,0.15952,0.42618,0.04005,0.05552,0.08167,0.10191,0.13306,0.14652,0.06427,0.04309,0.13306,0.07762,0.21094,0.1069,0.30468,0.05699,0.66152,0.08029,1.0078,0.0708,0.7772-0.14826,1.5022-0.68956,2.3717-0.75572,6.331-0.48257,12.703,1.0856,18.838,0.46631,8.0706-0.81476,15.834-3.8029,23.187-6.9867,0.79458-1.9211,1.816-3.8923,3.0816-5.7543,0.40372-0.45332,0.85733-0.87714,1.385-1.2516,1.3049-0.59771,2.6695-0.96038,4.0364-1.331,0.36062-0.09776,0.79913-0.38308,1.2187-0.6613,4.3827-2.9102,8.6822-6.1112,12.046-10.097,2.2068-2.6151,3.852-5.77,4.9936-9.0028,1.1605-3.2887,1.5771-6.8224,1.8001-10.433,0.0363-0.10736,0.0779-0.19808,0.13533-0.29561,0.0862-0.1119,0.1701-0.19732,0.26159-0.27519,0.86716-0.41354,1.6723-0.64337,2.3278-0.89287,0.0295-0.021913,0.0529-0.041524,0.0582-0.047601,0.003-0.00276,0,0.0005985-0.00092,0.0046-0.00061,0.00368-0.003,0.014363-0.004,0.018875-0.00092-0.00276-0.0212-0.086916-0.0447-0.1633-0.068-0.16482-0.16482-0.33871-0.2767-0.50352-1.8492-1.5763-4.0803-2.9735-6.0248-4.7955-0.29409-0.27444-0.4453-0.69554-0.45437-0.88077,0.10962,0.07329-0.0167,0.070343-0.14288,0.065003-0.43851-0.039315-0.87775-0.12021-1.3162-0.26159-0.44908-0.2321-0.8218-0.52317-1.1408-0.7583-0.12096-0.089218-0.26536-0.14666-0.40219-0.19354-0.27067-0.052205-0.56476-0.015928-0.88607-0.057453-2.1086-0.27444-3.9979-1.3578-5.9053-1.3193-6.3461,0.12777-12.533,2.5841-18.879,3.954-6.6054,1.4266-14.872-0.21699-19.99,0.45512-1.7283,0.22681-3.675,2.7625-5.8668,3.7696-0.74469,0.34172-1.6028,0.34096-2.1169,0.25705,0.14061-0.29864,0.1391-0.25705,0.13457-0.2253-0.008,0.05064-0.0409,0.15952-0.0801,0.21925-0.0431,0.065003-0.11568,0.12398-0.1875,0.16859-0.004,0.0009208-0.084,0.032502-0.16028,0.047693-0.0037,0.0006077-0.07182,0.00276-0.12852-0.00276-0.0046-0.0006076-0.04686-0.00921-0.05221-0.010588-0.29107-0.15725-0.40221-0.24268-0.4264-0.26536,0.01961,0.0046,0.0476,0.00737,0.09152,0.00737,0.02339-0.00276,0.05672-0.00645,0.1187-0.032502,0.03103-0.01289,0.05966-0.036276,0.07863-0.054415,0.01436-0.013627,0.0302-0.0302,0.04769-0.059663,0.02725-0.047693,0.04383-0.10509,0.04456-0.11643,0.0046-0.073289,0.0064-0.060491,0.0064-0.066568-0.0064-0.067305-0.01132-0.094503-0.01667-0.10585-0.0151-0.033975-0.0083-0.02265-0.02642-0.056716,0.41807,0.27821,1.0342,0.61843,1.6754,0.99266,0.13986,0.096777,0.29031,0.2185,0.45588,0.40145,0.0348,0.05368,0.068,0.11794,0.096,0.19204,0.0181,0.07412,0.0264,0.158,0.0272,0.17237-0.004,0.06353-0.0167,0.15726-0.0287,0.21169-0.0325,0.09752-0.0741,0.19052-0.11719,0.26687-1.3246,1.1219-2.6786,1.9075-3.9071,2.7111-0.12852,0.08388-0.22756,0.19959-0.28275,0.2699-0.0046,0.0055-0.000921-0.000921,0-0.0099,0.0055-0.05073,0.0098-0.0279,0.0028-0.07559-0.0083-0.05524-0.0064-0.0325-0.02265-0.07412-0.0028-0.0055,0.0028,0.00092,0.0037,0.0028,0.0055,0.0064,0.03103,0.02569,0.06353,0.04687,0.44152,0.13608,1.0244,0.22227,1.6655,0.33189,0.19279,0.05221,0.38784,0.12475,0.59197,0.23286,0.08618,0.0627,0.17238,0.13836,0.25932,0.23512,0.0529,0.07486,0.11415,0.19052,0.14741,0.27595,0.0151,1.9906-0.062,3.8905-0.54509,5.7292-0.30922,1.1779-0.82785,2.3338-1.571,3.2902-1.7941,2.3081-3.8784,5.0019-6.4262,5.9575-4.6647,1.7487-10.598,0.96167-15.733,1.4727-2.3883,0.23814-4.5913,1.7857-7.1044,2.4518-1.9778,0.52544-4.0251,0.43926-5.9605,0.09152-9.9327-1.7857-24.672-7.5179-28.863-9.6333-0.22681-0.11416,0.31957-0.66228,0.40576-0.83011,0.2194-0.42565,0.39782-0.88531,0.48083-1.3654,0.0859-0.49671,0.1184-1.0305,0.0064-1.5302-0.36646-1.6444-1.0785-3.2403-1.7054-4.6102-0.11228,0.05221-0.47464,0.01363-0.83345-0.04687-1.4258-0.48915-2.6632-1.2489-3.8279-1.8031-0.33756-0.16028-0.72034-0.1943-1.0965-0.2321-0.19022,0.000599-0.37507-0.0092-0.53104,0.06197-0.61276,0.27746-1.2563,0.79534-2.0445,1.2731-0.34611,0.1376-0.69698,0.23437-1.0561,0.29259-1.7099,0.71974-3.535,1.6345-5.3586,2.5705-0.56173,0.24873-1.1311,0.42866-1.7141,0.55795-1.6692,0.16027-5.4502-0.52091-5.385-0.63658,0.0848-0.15196,5.1286-0.7772,7.5615-0.85431,0.22327,0.04014,0.45748,0.11038,0.66561,0.20035,0.19022,0.10962,0.38278,0.24722,0.54283,0.38406,0.90874,1.2694,1.5342,2.5433,2.1721,3.7212,0.2185,0.30846,0.46034,0.58743,0.71611,0.815,0.15626,0.10736,0.32343,0.19656,0.49111,0.2631,0.16542,0.04383,0.31724,0.06878,0.37446,0.09299,0.0074-0.0028-0.11068,0.03711-0.10418,0.03324,0.29826-0.13231,0.60861-0.23362,0.95471-0.30015,0.16662-0.01059,0.34232-0.0055,0.53307,0.02421,0.12845,0.03628,0.25191,0.08618,0.37688,0.15348,0.11454,0.08167,0.19929,0.15876,0.28261,0.24949,0.08323,0.11567,0.145,0.22378,0.19694,0.33719,0.06473,0.19807,0.14471,0.40523,0.12558,0.58441-0.27171,2.5501-1.3615,5.8713-1.7684,7.0046-0.02514,0.06951,0.41551,0.13759,0.76873,0.2321,2.455,0.65472,5.164,0.50579,7.8405,0.92312,6.1223,0.9541,11.672,3.6531,17.489,5.172,2.9745,0.77644,6.1678,1.3888,9.0543,0.81802,2.504-0.4952,4.4522-3.1942,7.2344-3.7892,5.6521-1.2081,11.578,0.17389,17.05,0.000921,1.0032-0.03177,2.0382-0.73259,2.9908-0.97074,1.2694-0.31602,2.8623-0.40523,4.1332-0.84298,0.31753-0.10887,0.56777-0.29031,0.82029-0.48537,0.33568-0.34248,0.62901-0.72276,0.89816-1.1416,0.7704-1.6565,0.33266-4.0296,1.7321-5.2483,3.2872-2.8631,7.7326-3.0218,11.264-4.4394,0.80289-0.32282,1.5022-0.87095,2.0995-1.4501,0.33568-0.32584,0.57685-0.72579,0.79837-1.1227,0.11491-0.2888,0.26839-0.59574,0.25175-0.91403-0.0899-1.7865-1.1567-3.7544-0.95411-5.8532,0.1308-1.3465,1.2686-2.1827,1.7411-3.0029,0-0.0009207-0.003,0.043826-0.0006,0.069607,0.009,0.05064,0.003,0.039315,0.0257,0.10206,0.0159,0.040788,0.0371,0.076328,0.0673,0.10887,0.0371,0.037842,0.0544,0.046128,0.0605,0.049903-0.32963-0.061965-0.85884-0.093748-1.4871-0.18976-0.12323-0.018875-0.6018-0.15952-0.42489-0.17086,15.07-0.91102,30.742-0.92463,46.329-0.39994,0.23814,0.41582,0.27292,0.56249,0.30165,0.72049,0.0212,0.23588,0.0189,0.49218-0.006,0.72731-0.0635,0.28502-0.1497,0.54358-0.26084,0.79231-1.0055,1.3351-2.1456,2.3868-3.0362,3.4142-0.11869,0.13684-0.18144,0.32963-0.23664,0.48386-0.0234,0.11189-0.0318,0.19581-0.0318,0.30014,0.006,0.05975,0.0151,0.10887,0.0121,0.10206-0.006-0.0099-0.006-0.01059-0.006-0.01132,0.0006-0.000598,0,0.000608,0.0318,0.02339,0.67816,0.20488,1.593,0.3508,2.6143,0.59877,0.16557,0.07182,0.34853,0.17237,0.533,0.30694,0.0922,0.08922,0.16405,0.17238,0.24949,0.29334,0.0477,0.08848,0.0915,0.19052,0.12171,0.28653,0.0408,0.29713,0.0401,0.47177,0.0386,0.63658-0.2699,3.6962-0.96091,7.338-2.042,10.874-1.3563,3.1746-2.7996,6.4209-5.082,8.9854-3.2426,3.6433-7.6586,6.4069-11.572,8.7837-0.38784,0.23534-0.85809,0.30505-1.2868,0.41045-2.6249,0.12406-5.1221-0.19959-7.527-0.44651-5.6218,1.1447-11.252,3.0909-17.055,4.7405-1.63,0.29916-3.2887,0.80713-4.9368,0.62848-6.0527-0.65563-11.788-2.5244-17.596-2.862-0.78929-0.04604-1.6088,0.85204-2.6635,1.0088-1.8031,0.26876-3.8399-0.69223-4.6738-0.37333-0.67437,0.25818-1.3291,1.8703-2.194,2.7979-1.2149,1.3027-2.6476,2.4172-4.0062,3.3195-0.18523,0.20496-0.38634,0.41491-0.47025,0.65472-0.17766,0.50646-0.24873,1.1467-0.29031,1.7084,0.0037,0.05174,0.0074,0.06316-0.0028,0.04023-0.0151-0.03287-0.03094-0.06086-0.06804-0.09988-0.04309-0.04512-0.09828-0.08001-0.10887-0.08443-0.06574-0.02836-0.13836-0.05082-0.14969-0.05138-0.07034-0.0037-0.13306-0.0018-0.14516,0.0018-0.06574,0.01832-0.10206,0.02863-0.11416,0.03692-0.06196,0.04346-0.07255,0.0511-0.06657,0.04493,0.30997-0.63938,0.59802-1.4787,1.475-2.7565,0.46948,0.58857,0.471,0.60807,0.46722,0.64496-0.01667,0.14357-0.06049,0.30861-0.11265,0.44711-0.08314,0.15983-0.16028,0.32162-0.28048,0.42474-0.64943,0.55371-1.3283,0.90246-1.9264,1.227-0.17161,0.10842-0.30997,0.2129-0.39918,0.30037-0.01667,0.02302-0.03628,0.03664-0.02652,0.03895,0.0098,0.0018,0.0037-0.02863,0.0028-0.0092,0.0074,0.13351,0.02956,0.26491,0.06878,0.4025,0.31905,0.55554,0.82181,1.1636,1.3525,1.9069,0.13231,0.89838,0.25554,1.7858,0.36743,2.6662l-1.0743-0.000921m-37.196,0.009c-0.31928,4.2999-0.60959,8.7879-1.3576,13.184-0.0055-0.02274-0.01749-0.04751-0.01188-0.03664-0.01998-0.03011-0.04401-0.0523-0.03572-0.04512-0.02302-0.01593-0.04548-0.02541-0.0348-0.02136-0.01068-0.0037-0.0139-0.0046-0.01335-0.0046,0.41551-0.13056,0.90224-0.34672,1.4566-0.55136,0.04106-0.0055,0.1063-0.0083,0.1943,0.0064,0.0083,0.0028,0.07172,0.03425,0.11757,0.07172,0.0028,0.0028,0.0092,0.0098,0.04309,0.05736,0.0018,0.0028,0.0055,0.01086,0.02541,0.06261,0.000921,0.0037,0.0028,0.01123,0.0098,0.05966,0.000608,0.0046,0.000304,0.0098,0.000304,0.01418-0.02182,0.12958-0.04429,0.20193-0.06878,0.2693-0.07624,0.16859-0.17457,0.33046-0.29001,0.48022-0.7865,0.59356-1.5898,1.0221-2.3233,1.5437-0.18454,0.06786-0.33514,0.10923-0.48015,0.14084-1.2779,0.02182-2.4981-0.20375-3.6762-0.37242-0.45951-0.06556-0.9383-0.06464-1.3777,0.02716-0.35087,0.07329-0.73183,0.19823-1.0215,0.43887-1.7054,1.4155-3.1092,3.2524-4.5842,5.048-0.51712,0.52302-1.0847,1.0029-1.86,1.4379-0.58063-0.38036-1.0543-0.67302-1.5463-0.9238-0.37771-0.15264-0.76812-0.26839-1.161-0.3334-0.21025-0.0083-0.4199,0.0046-0.6222,0.04254-1.7793,0.99168-3.4249,2.3162-5.0985,3.5775-0.43706,0.32932-0.92726,0.39812-1.4163,0.59303-0.05644,0.0028-0.06942,0.0083-0.12732-0.0092-0.05718-0.01657-0.10955-0.05847-0.11341-0.06261-0.0331-0.036-0.0416-0.043-0.0644-0.082-0.0186-0.031-0.0301-0.07-0.0381-0.098,0.00368-0.39275,0.046312-0.70378,0.071724-0.88304,0.010036,0.0186,0.025136,0.03904,0.052297,0.06703,15.346,4.2034,30.932,7.8659,46.328,11.924,0.85052,0.06491,1.6927,0.05644,2.5052-0.06151,0.25243-0.07292,0.48726-0.16444,0.69561-0.2761,0.12021-0.09247,0.23588-0.1887,0.32887-0.31928,0.14592-0.20495,0.25252-0.4521,0.34626-0.70522,0.15196-0.63196,0.22832-1.2994,0.24117-1.9654,3.6675-3.3298,7.1414-6.5547,10.383-10.012,3.1065-3.9713,5.7587-8.2575,7.8763-12.819,0.88985-3.1042,1.574-6.2629,2.0708-9.4716l0.67135,0.0046c-0.50427,3.2592-1.2089,6.5015-2.132,9.7007-2.1622,4.6404-4.8567,8.9799-8.0093,12.999-3.2766,3.4845-6.7868,6.7339-10.25,9.577-0.0151,0.72972-0.09828,1.4495-0.27368,2.1739-0.11341,0.30241-0.24571,0.6092-0.44001,0.88153-0.12323,0.17305-0.30317,0.326-0.4831,0.46185-0.29182,0.15658-0.58569,0.27051-0.87865,0.35442-0.91608,0.13292-1.8215,0.14116-2.7137,0.07237-15.501-4.1065-31.033-7.7829-45.912-12.898,0.03839,0.04668,0.06196,0.08719,0.07798,0.12641,0.0037,0.43683-0.03839,0.73893-0.05018,0.96128-0.000608-0.0064-0.0037-0.02357-0.01096-0.0372-0.01565-0.02928-0.0163-0.02633-0.03895-0.05497-0.0037-0.0046-0.0337-0.03425-0.07946-0.05101-0.04493-0.01657-0.04364-0.01123-0.08627-0.01335,0.35821-0.16277,0.83813-0.24162,1.1267-0.46163,1.6943-1.2929,3.3876-2.6283,5.3208-3.6827,0.26288-0.04834,0.52484-0.06491,0.78741-0.05432,0.46155,0.0767,0.90186,0.20791,1.3277,0.38065,0.52982,0.27194,1.0327,0.58358,1.3788,0.88244,0.43502-0.33643,0.96424-0.78203,1.4578-1.2797,1.4512-1.7604,2.8762-3.6257,4.6903-5.1179,0.32305-0.26582,0.75277-0.41052,1.1756-0.49883,0.50382-0.10516,1.0339-0.10305,1.5342-0.03094,1.2103,0.17418,2.3895,0.39834,3.53,0.38482,0.12906-0.02808,0.24866-0.06086,0.32986-0.0824,0.74861-0.52839,1.5528-0.95509,2.2164-1.4468,0.08213-0.10486,0.15211-0.21856,0.20943-0.34316,0.01888-0.05257,0.03425-0.10221,0.03867-0.09745,0-0.0046-0.000608-0.01887-0.000304-0.01446,0.0037,0.04097,0.000608,0.03131,0.0018,0.03508,0.0151,0.04548,0.01031,0.03904,0.01243,0.04198,0.02771,0.04281,0.02182,0.03839,0.02449,0.04106,0.03075,0.02928,0.07421,0.05497,0.06565,0.05174,0.03628,0.01151,0.05082,0.01243,0.04106,0.01354-0.44833,0.17102-0.94239,0.38958-1.5517,0.55493-0.03987-0.0028-0.08323-0.01031-0.13291-0.02541-0.01059-0.0046-0.05257-0.02541-0.0939-0.05487-0.0083-0.0074-0.04539-0.04668-0.0767-0.09601-0.0055-0.01086-0.02339-0.05929-0.03315-0.10599,0.73652-4.3755,1.0407-8.7725,1.5079-13.247h0.29803zm7.5635,0c0.0018,0.06556,0.0046,0.13434,0.0064,0.20292,0.06666,0.12935,0.15498,0.26279,0.25244,0.38035,0.23686,0.21616,0.51304,0.40728,0.82278,0.58592,0.46926,0.24715,0.96068,0.53066,1.4524,0.92909,0.12021,0.1379,0.23066,0.29296,0.32365,0.45921,0.08038,0.19286,0.13502,0.38716,0.16868,0.59363,0.0092,0.11341,0.01151,0.23475-0.01031,0.41461-0.02569,0.08977-0.06104,0.1766-0.10539,0.25902-0.07531,0.1069-0.15181,0.19369-0.22537,0.26249-0.27844,0.19346-0.54366,0.34324-0.81598,0.43418-0.90398,0.30089-1.7607,0.5519-2.4642,0.89687-0.05874,0.04963-0.09714,0.08765-0.13639,0.13555-0.01363,0.02182-0.03195,0.05874-0.04042,0.08323-0.0064,0.03462-0.0064,0.04733-0.0064,0.0824,0.01998,0.11257,0.06786,0.26521,0.13639,0.43501,0.34557,0.68602,0.72593,1.4231,1.0133,2.3428,0.0028,0.09624-0.000304,0.19248-0.01888,0.31806-0.08093,0.22884-0.14743,0.35525-0.22953,0.49111-0.33749,0.42934-0.71966,0.79851-1.1157,1.1166-2.0324,1.2224-4.1148,2.2264-5.8917,2.9036-0.25047,1.1382-0.61873,2.236-1.1228,3.2958-0.35882,0.57179-0.76488,1.1364-1.2761,1.6022-0.3083,0.2811-0.6653,0.51002-1.0959,0.68632-0.22386,0.09189-0.4775,0.10335-0.70582,0.11454-0.38769-0.02744-0.76072-0.10214-1.1089-0.20995-0.2566-0.10191-0.51409-0.22204-0.52921-0.29235,0.2206-0.05018,0.20647-0.03904,0.19378-0.02661-0.06997,0.09152-0.13496,0.20617-0.20081,0.34793-0.18666,0.4893-0.3839,1.054-0.76842,1.6278-0.06887,0.10252-0.20707,0.1816-0.32872,0.25486-0.11431,0.04963-0.21796,0.07946-0.30801,0.09715-1.4601-0.10274-2.7618-0.31564-3.8321-0.38656-0.16148,0.05847-0.35972,0.11249-0.60482,0.14266-0.08507-0.0018-0.1943-0.01482-0.3015-0.04042-0.20019-0.0848-0.28941-0.13087-0.28972-0.12936-0.0064-0.000607-0.04696,0.000534-0.08682,0.0064-0.58804,0.20995-1.2135,0.52802-1.8381,0.91608-0.71203,0.44235-1.4569,0.87918-1.9474,0.80176,12.198,4.4361,25.072,8.4864,37.833,11.893,4.215-4.3397,8.1335-9.2658,11.45-14.603,1.7517-3.6268,3.1466-7.3949,4.0485-11.246-0.09299-2.7253-0.36138-5.5125-0.66984-8.1737l1.0743-0.0046c0.35457,2.7781,0.6033,5.4886,0.69252,8.2743-0.95033,4.0757-2.389,7.9498-4.1861,11.661-3.3931,5.4451-7.3887,10.454-12.136,15.116-13.336-3.4435-26.202-7.5206-39.081-12.95,1.0233-0.75572,1.7099-1.1576,2.4086-1.5892,0.65442-0.40395,1.3709-0.766,2.2007-1.0457,0.12346-0.01501,0.24782-0.0186,0.40462-0.0028,0.23951,0.07449,0.37356,0.14297,0.40341,0.15741-0.0064-0.000921-0.0139-0.000921,0.0037-0.000921,0.06233-0.0083,0.16361-0.03637,0.2935-0.0836,1.5478,0.02836,2.8493,0.24517,4.012,0.35147,0.02477-0.0046,0.03333-0.0074,0.02569-0.0046,0.0221-0.01381,0.04401-0.02035,0.06611-0.05607,0.20375-0.32517,0.38747-0.81537,0.59356-1.3502,0.0945-0.2008,0.21795-0.41467,0.38043-0.62107,0.08379-0.08093,0.17569-0.15241,0.51114-0.27231,0.42497,0.17335,0.6229,0.26672,0.83375,0.35087,0.2696,0.08415,0.53066,0.13729,0.78786,0.1565,0.14682-0.0074,0.28267-0.01243,0.40167-0.06196,0.2516-0.10486,0.55197-0.28971,0.78967-0.50556,0.41702-0.37861,0.76842-0.85975,1.0857-1.3624,0.45036-0.94269,0.79087-1.9483,1.0203-2.9762,2.2967-1.3567,4.3542-2.3401,6.2579-3.4736,0.34876-0.27762,0.65441-0.56944,0.90844-0.8872,0.05046-0.0824,0.10305-0.1813,0.10721-0.19195,0.000921-0.0028,0.0028-0.03747,0.0018-0.07172-0.20375-0.60838-0.56143-1.3057-0.93762-2.0617-0.08443-0.2129-0.15831-0.45362-0.20322-0.74741,0.000608-0.11166,0.01538-0.24547,0.04042-0.35412,0.04456-0.1252,0.09571-0.23066,0.16542-0.34347,0.09571-0.1196,0.20912-0.2336,0.31481-0.32222,0.94329-0.47395,1.8576-0.74363,2.7063-1.0197,0.21584-0.07034,0.4019-0.1754,0.54692-0.27232,0.02992-0.02808,0.0465-0.04751,0.05313-0.05635,0.0028-0.0028,0.0037-0.0064,0.0055-0.0094,0-0.000921-0.000921-0.06325-0.0064-0.132-0.01593-0.10334-0.04548-0.21115-0.08507-0.3077-0.04907-0.0883-0.10781-0.17042-0.17902-0.25191-0.3316-0.26613-0.75776-0.51387-1.2258-0.76284-0.36063-0.20934-0.71974-0.46155-1.0519-0.77016-0.15242-0.18697-0.28087-0.38188-0.39427-0.60248-0.0098-0.1819-0.01832-0.36297-0.02514-0.54343l0.78733-0.0018m-19.167-49.094c0.04134,0.05893-4.5748,4.2345-11.935,12.868-0.81681,1.6776-1.4408,3.4346-1.865,5.2521-0.23444,2.1086-0.25039,4.2428-0.038394,6.3196,0.1562,0.47932,0.36645,0.93671,0.62902,1.3714,0.69101,0.84554,1.4941,1.5995,2.3699,2.2902,2.2188,1.3608,4.597,2.4302,7.0804,3.2749,7.9572,1.6236,16.074,2.3259,24.569,2.9272-0.0083,0.07651-0.01151,0.09427-0.02836,0.15596-0.05902,0.13321-0.11484,0.2513-0.19105,0.32396-0.92794,0.88122-1.8981,1.6408-2.6233,2.245,0.0037-0.06233,0.0064-0.04447,0.0074-0.04014,0.02725,0.07624,0.07265,0.16656,0.13291,0.26431,0.99258,1.1078,2.1101,2.2214,3.1237,3.6183,0.03987,0.1255,0.06915,0.26076,0.08121,0.40576,0.0046,0.10509,0.01823,0.1816,0.03775,0.24927,0.0198,0.04723,0.04456,0.09239,0.07375,0.13465,0.05699,0.06436,0.12732,0.1255,0.20912,0.18371,0.31988,0.17184,0.70968,0.36115,1.1609,0.69903,0.06436,0.08121,0.1131,0.15589,0.1636,0.25454,0.04189,0.11401,0.0662,0.2188,0.08001,0.3257,0.0018,0.12559-0.0083,0.23687-0.02771,0.34702-0.06196,0.19672-0.13942,0.36479-0.22446,0.51326-0.76101,0.90905-1.5032,1.6949-2.0348,2.4884-0.03425,0.101-0.05699,0.19793-0.06786,0.28948-0.02864,0.57261-0.12792,1.1671-0.28737,1.7332-0.29886,0.79677-0.56256,1.5289-0.68814,2.2433,0.40077,2.3071,1.0485,4.7981,1.282,7.4052,0.0046,0.05202-0.04834,0.10456-0.09298,0.17608-0.0558,0.06997-0.07559,0.09097-0.14176,0.15144-0.07918,0.05616-0.17161,0.10516-0.25515,0.13737-0.1246,0.03094-0.23687,0.04631-0.33492,0.0499-1.1567-0.26075-2.1284-0.58092-3.0199-0.73266-0.07762,0.0064-0.14735,0.01832-0.21532,0.03692-0.03094,0.01298-0.08093,0.03987-0.10214,0.05469-0.02339,0.0209-0.05497,0.05552-0.06878,0.07439-0.0046,0.0074-0.01123,0.02274-0.01335,0.03094-0.000921,0.0064-0.000921,0.01243-0.000921,0.02596,0.000921,0.01123,0.01004,0.05257,0.02072,0.08535,0.06021,0.12195,0.14969,0.2752,0.27579,0.41642,0.39275,0.4394,0.84939,0.91373,1.2654,1.5593,0.03342,0.10101,0.05791,0.2126,0.07154,0.34196-0.0028,0.10222-0.0151,0.19581-0.03812,0.28737-0.03665,0.09867-0.08066,0.18515-0.13381,0.26665-0.0933,0.10985-0.19309,0.20292-0.28321,0.27081-3.0096,2.0903-6.0763,4.1118-9.5082,5.7284-1.1467,0.1816-2.2891,0.2637-3.5528,0.28169-0.12754-0.05405-0.21138-0.10365-0.29674-0.16595-0.20526-0.19642-0.33462-0.32985-0.38308-0.36886,0.0046,0.000921,0.0092,0.0028,0.02154,0.0046,0.01685,0,0.000607,0.000921,0.01749-0.000304-0.0018,0.000608-0.02569,0.01114-0.06288,0.03241-1.0298,0.88629-2.0791,1.935-3.4426,2.8399-0.11725,0.07762-0.29122,0.06942-0.46548,0.0824-0.09919-0.0046-0.19755-0.0198-0.29379-0.04484-0.08986-0.03425-0.19702-0.09069-0.2832-0.14946-0.11817-0.09889-0.17873-0.14939-0.18137-0.15174-0.01602-0.0046,0.000295-0.000608-0.0163-0.0028-0.05082,0.0018-0.13374,0.01565-0.21524,0.03692-0.16391,0.0558-0.31898,0.11809-0.43359,0.1943-0.06104,0.04042-0.10456,0.09307-0.13994,0.1385-0.09692,0.17661-0.24662,0.47727-0.50087,0.81099-0.16836,0.14531-0.34671,0.264-0.51386,0.3523-0.09097,0.04107-0.16746,0.07292,0.06463-0.33166,6.9495,3.077,14.202,6.3878,21.846,8.4105,5.0385,0.56883,10.136,1.0071,14.994,1.7162,3.6245-3.0141,7.4122-6.0796,10.504-9.7043,1.3896-2.305,2.5214-4.7357,3.3568-7.293,0.90799-6.3748,1.0365-12.918,1.0312-19.187-0.89891-1.3903-1.9059-2.8374-2.7209-4.6053-0.02339-0.14296-0.03628-0.26786,0.31451-0.94117,1.3268,0.98578,2.0224,1.8532,2.7028,3.0528,0.000608,0.0064,0.000921,0.01998,0.000608,0.11666-0.000608,0.0046-0.0037,0.02421-0.03176,0.14909-0.000599,0.0046-0.0028,0.0098-0.0046,0.01363-0.08388,0.14916-0.09526,0.1689-0.09828,0.17161-0.13306,0.11666-0.16103,0.16504-0.32056,0.20141-0.18371,0.04217-0.29712,0.0074-0.37726-0.0074-0.60331-0.24307-1.0705-0.52393-1.5105-0.82959-0.01436-0.01123-0.02946-0.02246-0.04466-0.03333,0.28426-2.0005,0.86564-3.3829,1.7033-4.6307,0.27141-0.40463,0.63658-0.79889,1.0909-1.0759,1.9037-1.16,3.8353-2.274,6.052-3.5114,0.28728,0.036,0.54887,0.10251,0.79383,0.19052,1.196,0.6969,2.2091,1.4881,3.1118,1.9261,0.10585,0.05138,0.49445,0.01335,0.82407,0.07467,0.68949,0.23331,1.2565,0.43177,1.7706,0.51773,8.2724,0.73214,16.434,1.292,24.456,0.62372,0.70537-0.1751,1.4213-0.34641,2.1403-0.50352,8.7072-1.5469,17.146-4.0229,25.213-7.3136,4.8703-3.0933,9.5342-6.4009,13.56-10.349,1.0153-1.4372,2.1864-2.8888,2.541-4.5921,0.96393-4.6435,0.68949-9.6439,1.063-14.426-0.0447-0.17389-0.0922-0.32661-0.13608-0.41733-0.0234-0.0325-0.037-0.04769-0.0733-0.08167-0.0393-0.02642-0.0794-0.06049-0.13458-0.06951-0.56399-0.10131-1.3442-0.13759-2.2325-0.34701-0.1633-0.0801-0.32811-0.1686-0.47781-0.29864-0.15045-0.13079-0.27973-0.30543-0.39011-0.47554-0.0741-0.14289-0.12777-0.26234,0.0181-0.13457-0.10585,0.07412-0.53678,0.04843-0.90119-0.12549-1.8681-0.8906-3.3568-2.7474-5.0639-2.7376-9.0171,0.053678-17.96,2.9198-27.219,3.6977-4.0901,0.34324-8.2256-0.55795-11.85-1.5861,0.009,0.010588-0.0461-0.053678-0.11114-0.094503-0.0415-0.025688-0.0847-0.03554-0.11642-0.042353-0.0302-0.0009207,0.006-0.00552,0.0597-0.014363,0.6585-0.22152,1.4032-0.51335,2.4276-0.72503,0.0718,0.013627,0.16482,0.040051,0.25176,0.080103,0.0121,0.00552,0.10811,0.07108,0.18296,0.14213,0.009,0.00921,0.0779,0.10736,0.11793,0.18825,0.30997,1.1439,0.64717,2.2431,0.62524,3.4286-0.0469,2.5062-0.45815,5.0525-1.289,7.4257-0.58516,1.6708-1.5824,3.173-2.6408,4.6034-0.80441,0.87775-1.5544,1.8833-2.6892,2.3966-3.8731,1.7525-7.617,3.4528-11.718,4.8098-0.59726,0.19808-1.2512-0.09298-1.8311-0.28275-0.65396-0.21395-1.3162-0.89589-1.5763-0.81877-6.8156,2.0178-20.931,7.0893-31.92,8.9642-4.8433,0.82724-10.019,0.92174-14.997-0.0279-2.2707-0.4332-4.3501-1.7033-6.223-3.0445-3.6375-2.6038-7.088-5.4381-10.787-8.3473-0.03094-0.11492-0.05165-0.23134-0.06049-0.36667,0.15415-1.856,0.5268-3.6365,1.1169-4.9331,0.28442,0.22076,0.17155,0.20035,0.05313,0.16557-0.15945-0.06804-0.27996-0.13457-0.40161-0.21622-0.2897-0.26083-0.54312-0.50881-0.69909-0.78551-0.85642-1.5189-1.5421-3.0506-2.328-4.2549-0.0186-0.01363-0.04576-0.03029-0.05874-0.03701-0.0064-0.0028-0.0046-0.0028-0.01206-0.0028-0.29561,0.0028-0.62016,0.0197-0.89686,0.10736-0.34998,0.11113-0.70908,0.29333-1.0192,0.53904-0.91162,0.722-1.8537,1.6103-3.0371,2.191-0.46246,0.22681-0.98548,0.27293-1.494,0.32963-0.11258,0.0055-0.23392,0.0092,0.1007-0.26234,0.02836-0.44832,0.1317-0.36062,0.2436-0.28426,0.12527,0.06804,0.26521,0.12475,0.41052,0.16557,0.17426,0.02873,0.36765,0.03628,0.56112,0.02191,0.28789-0.05598,0.58327-0.15272,0.87562-0.282,0.55878-0.32358,1.1063-0.68572,1.5531-1.159,0.52362-0.55568,0.92879-1.2316,1.2817-1.9135,0.03959-0.09224,0.07412-0.17691,0.29152-0.50804,1.2619-0.16633,2.2577-0.3372,3.2237-0.67363,1.6828-0.58667,3.408-1.2323,5.3043-1.5514,0.2135,0.0037,0.46102,0.02569,0.71913,0.08618,0.18606,0.07338,0.36765,0.14969,0.51296,0.2699,0.28502,0.23739,0.49732,0.52393,0.67543,0.78324,0.2631,0.41733,0.50911,0.77342,0.76842,1.0531,0.10781,0.0824,0.20791,0.1512,0.31625,0.1943,0.11401,0.04465,0.23188,0.06353,0.36417,0.07937,0.01952,0,0.04751,0.000921,0.40048,0.14062,0.26544,2.2076,0.33839,4.106,0.2705,5.5719,0.01179,0.0083-0.04438-0.02569-0.09866-0.05073-0.01206-0.0055-0.04042-0.01363-0.09215-0.01667-0.03453-0.0028-0.06371,0.0046-0.08231,0.0083-0.0163,0.0055-0.0092,0.000598,0.0046-0.0092,0.23392-0.22227,0.67514-1.2263,1.0132-1.0501,3.4131,1.7804,12.474,8.1364,19.097,10.685,1.2826,0.49369,2.7149,0.79459,3.9904,0.60936,2.6031-0.38029,5.2341-1.7457,8.0866-1.8092,6.1646-0.13533,12.33,0.14516,18.316-0.94125,2.8162-0.79307,5.8879-1.2036,8.1296-2.8427,2.9062-2.1252,4.8612-5.491,6.8027-8.6225,0.66529-1.0736,1.0705-2.2802,1.3487-3.4634,0.0885-0.3765,0.093-0.76358,0.14894-0.93747-0.004-0.0064,0-0.0028,0.062,0.08692,0.004,0.0046-0.009,0.0028,0.0711,0.05745,0.0612,0.04152,0.0567,0.02946,0.11038,0.04539,0.037,0.0037,0.0181,0.0055-0.008,0.0099-0.93596,0.33189-1.943,0.74922-3.2796,1.0486-0.08774-0.0325-0.10962-0.04383-0.2011-0.10282-0.0055-0.0037-0.01059-0.0092-0.09069-0.09451-0.08471-0.16707-0.10433-0.22529-0.1255-0.3077-0.0151-0.09069-0.02265-0.18296-0.02118-0.2752,0.01814-0.13684,0.04466-0.24042,0.08765-0.35533,0.07633-0.14138,0.15121-0.24722,0.23512-0.34626,0.89287-0.62826,1.7245-1.0796,2.3656-1.5612,0.06123-0.07338,0.10962-0.14592,0.14969-0.22379,0.02118-0.06049,0.0325-0.1066,0.04079-0.1701,0.000608-0.01666,0.0028-0.01814,0.0046,0.0037,0.0028,0.01593-0.02118-0.03324-0.05598-0.0945-1.0456-1.3472-2.1902-2.7172-3.2532-4.49,0-0.00921,0.01206-0.10509,0.01436-0.11341,0.000921-0.00737,0.04604-0.12701,0.0499-0.13382,0.000921-0.00368,0.0037-0.00921,0.0064-0.011325,0.11416-0.13155,0.13003-0.14667,0.40523-0.23437,0.61843,1.1665,0.47781,3.3061,0.85809,2.7028,1.2966-2.0617,2.7149-4.5619,4.9414-6.3317,0.42413-0.33719,0.97149-0.48763,1.4947-0.57231,1.3646-0.22152,2.755-0.1565,4.1082-0.020348,8.1454,0.82028,16.288,3.1073,24.325,2.5712,5.2052-0.34702,10.364-2.2893,15.652-1.9143,3.4036,0.24117,6.6697,0.98359,10.323,1.097,0.2132,0.35307,0.28049,0.50351,0.37877,0.62599,0.13533,0.17011,0.30619,0.30771,0.49595,0.44606,1.2195,0.55265,2.5947,0.99266,4.0153,1.6837,0.15196,0.13382,0.29485,0.28805,0.4264,0.46949,0.0734,0.13305,0.12928,0.25931,0.18069,0.41052,0.0287,0.13835,0.0408,0.25856,0.0423,0.39313-0.0371,0.29863-0.10508,0.55416-0.19202,0.79686-1.0108,1.794-2.0791,3.4407-2.8298,5.0881-0.0113,0.39086,0.031,0.83011,0.11189,1.2633,0.70991,1.9354,1.7162,3.9018,2.1962,6.0981,0.0983,0.44908,0.0408,0.96922-0.14137,1.3971-1.2595,2.9538-2.9031,5.8569-5.014,8.2558-4.3033,4.8892-9.5199,8.9574-14.973,12.585-0.75073,0.43207-2.0609,1.5502-2.5758,1.2953-0.76435-0.37832-1.7147-2.631-2.6499-3.6351-0.15272-0.16421-0.35458-0.26725-0.53678-0.36236-0.0635-0.02366-0.14062-0.04576-0.19959-0.05672-0.0408-0.0028-0.0831-0.0037-0.11567,0.0018-0.0325,0.0055-0.0666,0.0186-0.10433,0.03609-0.47781,0.30505-0.97906,0.64943-1.3525,1.1151-1.2338,1.5378-1.8371,4.1856-3.1179,5.2488-3.1912,2.6505-9.2507,5.1336-14.253,6.8249-9.2402,1.3422-18.564,1.9329-27.856,1.0874-2.7678-0.2519-6.8942-0.90814-8.0222-1.1851-0.12096-0.02956,0.10434-0.25365,0.10434-0.25516,0.000921,0.0037,0.0083,0.01749,0.02422,0.03987,0.08692,0.08977,0.20489,0.18198,0.34928,0.27731,0.70084,0.37891,1.4486,0.77084,2.2008,1.3532,0.0476,0.06528,0.09224,0.13964,0.13457,0.22824,0.02339,0.06445,0.04005,0.13087,0.05221,0.20413,0.0028,0.03802,0.0028,0.08765-0.01289,0.18953-0.0028,0.0074-0.0348,0.08627-0.03849,0.09337-0.04383,0.06528-0.05598,0.08029-0.10206,0.12815-0.1308,0.09602-0.24268,0.15567-0.34324,0.19967-1.4062,0.38391-2.7731,0.68988-3.9215,1.0664,0.01132-0.01657-0.000608,0.000303,0.0197-0.03158-0.0046,0.0083,0.01667-0.04926,0.01436-0.04042,0.0092,4.809-0.24344,9.7137-1.2686,14.556-1.3208,3.0368-3.0075,5.8823-4.9565,8.5414-5.8713,6.172-12.124,11.955-18.805,17.174-0.9758,0.76222-2.3248,0.84938-3.587,1.1588-14.567-3.443-28.941-7.361-42.667-13.721,0.0002946-0.0064,0.025412-0.04171,0.23036-0.2522,0.0037-0.0037,0.02035-0.0028,0.10244-0.000921,0.0064,0.000304,0.01243,0.0018,0.08268,0.02514,0.06086,0.03517,0.07357,0.04429,0.1128,0.07854,0.58479,1.3041,1.0068,2.5498,1.4513,3.6186,0.0064,0.0046-0.02928-0.01611-0.02302-0.01326,0.0055,0.0028,0.0064,0.0046-0.04521-0.0139-0.0046-0.0018,0.01151,0.0018-0.06666-0.000608-0.04963,0.01418-0.03572,0.0083-0.0511,0.01363,0.000598-0.0028,0.0046-0.0083,0.01326-0.02127,0.03038-0.04438,0.06997-0.13616,0.16149-0.18991,2.4503-1.4335,4.9328-2.7947,7.6938-3.996,0.0083,0.0064,0.04217,0.0348,0.07265,0.06795,0.02863,0.04134,0.04963,0.08213,0.06463,0.12105,0.01335,0.05138,0.02182,0.12081,0.02182,0.17811-0.0348,0.20934-0.08682,0.38006-0.1562,0.53958-0.05082,0.11635-0.23686,0.06915-0.2076,0.04539,0.43676-0.35352,5.3338-3.5078,8.4646-4.7382,1.4695-0.2327,2.8947-0.4574,4.1729-0.83336,0.1568-0.21766,0.31572-0.47192,0.41876-0.76374,0.48907-1.3821,0.86738-2.8212,1.4926-4.3602,0.05497-0.01805,0.11166-0.02919,0.16572-0.03333,0.114,0.0064,0.21879,0.02808,0.31329,0.05672,0.70175,0.35556,1.3328,0.74241,1.8989,1.0138-0.0099,0.000598,0.0074-0.000304-0.0064,0.00092-0.02302,0.0074-0.0093,0.0028-0.03112,0.01271,0.0064-0.0037,0.01068-0.0046-0.01998,0.01565-0.0064,0.0037-0.02035,0.02514-0.0163,0.01887-0.01243,0.02357-0.0064,0.0083-0.01298,0.02596-0.26105-3.3268-0.71112-6.7177-1.1875-9.9752-0.73478-1.0242-1.5012-2.0575-2.1186-3.2672-0.01363-0.0936-0.01888-0.19135-0.01482-0.28555,0.01657-0.12165,0.04401-0.23778,0.08535-0.35708,0.06473-0.13019,0.14826-0.2581,0.2383-0.36796,0.18432-0.17305,0.38125-0.3142,0.58712-0.43502,1.0868-0.42912,2.1653-0.76902,3.1147-1.2282,0.07034-0.06408,0.12906-0.12906,0.17986-0.20051,0.02182-0.04079,0.04042-0.08305,0.05469-0.12671,0.0083-0.0348,0.01446-0.07734,0.01657-0.09215,0.0018,0.0092-0.0028-0.0092,0-0.00092,0.0028,0.0083-0.0046-0.0083-0.0028-0.0028-0.0018-0.000921-0.01086-0.01059-0.01823-0.01611-0.04199-0.02596-0.09005-0.04723-0.14969-0.06859-0.68875-0.11779-1.4327-0.20434-2.2149-0.4279-0.05349-0.03361-0.1199-0.08415-0.1701-0.13261-0.03425-0.04014-0.07034-0.08646-0.09367-0.13585-0.02477-0.05165-0.03867-0.11219-0.04751-0.16768,0.08774-1.3178,0.23271-2.5926,0.53247-3.9019,0.29319-0.47222,0.56702-0.92077,0.74386-1.3747,0.01335-0.08452,0.01841-0.1763,0.01363-0.26165-0.01068-0.0674-0.02781-0.13351,0.0163-0.11198-5.836-0.291-11.712-1.263-17.436-2.902-4.037-1.646-7.887-3.694-11.467-6.189-1.5628-1.361-3.0731-2.74-4.6826-4.094-0.0983-0.275-0.158-0.555-0.1922-0.834-0.0975-1.605-0.4359-3.168-0.8911-4.714-0.59-1.9105-1.0918-3.8557-1.2914-5.8698,0.032502-0.37347,0.098057-0.74015,0.20352-1.1015,0.096851-0.2321,0.20284-0.47024,0.35496-0.66454,0.35087-0.44757,0.7865-0.84298,1.2403-1.1983,0.81568-0.48386,1.6828-0.85809,2.5797-1.1484,3.4393-0.74469,6.8408-1.565,10.052-2.9288,4.6782-2.9236,8.0874-4.9626,9.8856-6.1941,0.04226-0.14592,0.06648-0.29636,0.07624-0.44984-0.02569-0.39691-0.10457-0.78853-0.22031-1.1726-0.11046-0.29485-0.17184-0.44303-0.16746-0.44454,0.0046-0.0028,0.07467,0.14213,0.1946,0.43471,0.12497,0.38406,0.21297,0.77871,0.24782,1.1832-0.0074,0.15877-0.03048,0.31526-0.07265,0.47025-1.8095,1.2928-5.1986,3.3568-9.867,6.3121-3.2341,1.3918-6.6527,2.2341-10.071,2.9916-0.87767,0.2888-1.7226,0.65774-2.5099,1.1287-0.43411,0.34248-0.8302,0.7273-1.1825,1.1507-0.12693,0.19278-0.23384,0.3954-0.32213,0.60935-0.096022,0.33417-0.15627,0.68118-0.18553,1.0305,0.20202,1.9551,0.70583,3.8777,1.3027,5.7859,0.46307,1.5536,0.81333,3.1473,0.91812,4.7667,0.032778,0.25856,0.085995,0.50578,0.16988,0.73932,1.5291,1.2439,3.0663,2.6378,4.6182,3.9795,3.5525,2.461,7.3793,4.4821,11.394,6.1043,5.6885,1.6128,11.524,2.5625,17.541,2.9051,0.10282,0.17986,0.12844,0.27815,0.145,0.37832,0.0074,0.13231,0.000921,0.2578-0.0186,0.3883-0.2123,0.55522-0.61692,0.98344-0.78022,1.4832-0.36948,1.1299-0.39223,2.4373-0.47698,3.672,0.0028,0.01446,0.0046,0.02596,0.0098,0.03545,0.0064,0.01271,0.01565,0.02477,0.02716,0.03867,0.02569,0.02394,0.04291,0.03637,0.07863,0.05883,0.63907,0.17276,1.3691,0.25569,2.1405,0.38951,0.08627,0.03066,0.17865,0.07292,0.26787,0.12936,0.04014,0.03305,0.07384,0.06703,0.11045,0.1131,0.02274,0.03692,0.03453,0.05497,0.04926,0.09714,0.01482,0.04254,0.0163,0.06408,0.02155,0.11106-0.0055,0.09215-0.01445,0.15567-0.03094,0.22477-0.02569,0.07734-0.05782,0.15204-0.09655,0.22386-0.07854,0.11249-0.1701,0.21463-0.26635,0.30263-1.0773,0.53489-2.1618,0.87919-3.1816,1.2829-0.1745,0.10282-0.33576,0.21887-0.47274,0.34731-0.06648,0.08241-0.11847,0.16157-0.16361,0.25312-0.02421,0.07145-0.04318,0.15205-0.05349,0.23059-0.0018,0.05791,0.00092,0.11227,0.0094,0.16958,0.55228,1.0484,1.3122,2.0681,2.0702,3.1212,0.54517,3.4302,1.0023,6.8202,1.2608,10.309-0.01538,0.04908-0.02155,0.06408-0.05018,0.11605-0.0037,0.0064-0.03876,0.04843-0.04364,0.05285-0.03867,0.03278-0.04751,0.03839-0.05377,0.04226-0.04788,0.02514-0.0615,0.03038-0.1134,0.04557-0.04815,0.0074-0.06528,0.0083-0.11016,0.0083-0.77432-0.33341-1.4061-0.71914-2.0227-1.0333-0.05672-0.01703-0.1069-0.02836-0.1503-0.03158-0.0064,0-0.0092,0-0.0116,0.000608-0.35374,1.2365-0.73002,2.6851-1.2332,4.1132-0.11075,0.31451-0.29326,0.61163-0.51326,0.91313-1.5077,0.50888-2.9807,0.74514-4.4092,0.97369-2.9961,1.1869-8.3163,4.364-8.9176,4.6171-0.06611,0.02781,0.0674-0.48794,0.11136-0.58864,0.05543-0.12785,0.09481-0.2572,0.1128-0.35617,0.000608-0.0055,0.0037,0.0018,0.0018-0.0074,0.0037,0.0094,0.01031,0.0221,0.02127,0.03747,0.01685,0.0174,0.03655,0.03195,0.02836,0.02606-2.2347,1.2332-4.6954,2.6139-7.0816,3.9818-0.01565,0.0092-0.03572,0.03987-0.07651,0.09859-0.04245,0.05469-0.09745,0.10984-0.16331,0.15952-0.04014,0.02329-0.05405,0.02946-0.1323,0.05313-0.09069,0.00092-0.09685,0.000598-0.10214-0.000608-0.06381-0.01805-0.07679-0.02357-0.08213-0.02606-0.0064-0.0028-0.05561-0.03213-0.0615-0.03655-0.62992-1.3151-1.054-2.5598-1.5108-3.659,0.0163,0.01243,0.0037,0.0028,0.03655,0.0221,0.05966,0.01538,0.04171,0.01381,0.04723,0.01353,0.07172-0.0037,0.06555,0.0028,0.0685-0.000598,0.17276-0.225,0.19846-0.24624,0.19816-0.24064,13.358,5.8191,27.72,9.7084,42.139,13.114,1.0981-0.28827,2.4036-0.37181,3.3431-1.1128,6.5357-5.1543,12.751-10.911,18.553-17.027,1.912-2.6168,3.5548-5.397,4.8355-8.3517,0.98737-4.6986,1.2293-9.546,1.2331-14.506,0.0028-0.0092,0.02956-0.0836,0.03324-0.09152,0.04079-0.06859,0.05221-0.08563,0.09299-0.1326,1.4773-0.57231,2.8548-0.88304,4.1604-1.2369,0.06657-0.02983,0.11567-0.05616,0.13306-0.06694-0.01814,0.02155-0.0064,0.0064-0.02873,0.03922,0.0037-0.0074-0.02191,0.05644-0.02035,0.04871-0.0098,0.06169-0.0098,0.07117-0.0098,0.0685,0-0.0028-0.0028-0.01178-0.0064-0.02035-0.0064-0.01363-0.02118-0.03757-0.04079-0.06408-0.55644-0.41166-1.2731-0.78559-2.0269-1.1928-0.17389-0.11492-0.35761-0.25871-0.53301-0.44477-0.04383-0.06178-0.08692-0.13768-0.12549-0.22892-0.0197-0.06758-0.08544-0.4509,0.06804-0.45951,1.3941-0.07642,5.8259,0.74393,8.6421,0.99705,9.1472,0.82187,18.42,0.21736,27.534-1.117,4.8665-1.6503,10.804-4.1011,13.872-6.6176,1.1703-0.95977,1.8031-3.6242,3.111-5.2538,0.41506-0.51682,0.98133-0.90958,1.5718-1.2852,0.0975-0.04493,0.20563-0.08213,0.31677-0.10782,0.11264-0.01381,0.22-0.01657,0.32735-0.0094,0.15121,0.02633,0.27974,0.06197,0.41733,0.1128,0.2767,0.14326,0.55114,0.28532,0.74998,0.49678,1.0403,1.1048,1.8772,3.107,2.3641,3.4677,0.24042,0.17804,1.2452-0.75634,1.9657-1.2288,5.3678-3.5206,10.325-7.7305,14.751-12.428,1.8999-2.5047,3.6463-5.1833,4.8492-7.9678,0.14591-0.33794,0.19354-0.75148,0.11038-1.1189-0.43472-1.9362-1.4168-3.8761-2.1849-5.9703-0.0945-0.50427-0.14364-1.0138-0.12398-1.574,0.85506-1.9415,1.9369-3.613,2.8684-5.2551,0.068-0.18901,0.11719-0.37499,0.1376-0.53149-0.00061-0.04843-0.006-0.1119-0.0159-0.15196-0.0196-0.05598-0.0522-0.12928-0.0847-0.1875-0.0635-0.088481-0.14819-0.17917-0.24647-0.26536-1.1711-0.55114-2.5463-0.98964-3.948-1.63-0.24874-0.17993-0.51108-0.39237-0.7069-0.64035-0.15044-0.19052-0.25553-0.42186-0.19278-0.44605-3.1632,0.040051-6.6046-0.70764-9.9637-0.94427-5.0835-0.35912-10.152,1.5801-15.402,1.9286-8.3208,0.55342-16.465-1.7381-24.597-2.547-1.2626-0.1255-2.5576-0.18069-3.7862,0.015928-0.4332,0.069514-0.89589,0.20186-1.2225,0.46647-2.033,1.6466-3.4361,4.549-6.2493,5.8479-0.7704,0.35609-0.27142-1.6565,0.0092-2.0821,0.26083-0.10206,0.26688-0.11264,0.37121-0.24116,0.0028-0.00276-0.0046,0.00737-0.0064,0.011325-0.0037,0.00645,0.03407-0.092993,0.03176-0.085443-0.000921,0.00829,0.0083-0.066568,0.0083-0.056717,0.86489,1.1756,2.0012,2.5319,3.1299,3.9933,0.0582,0.10282,0.11567,0.22303,0.17464,0.41808,0.007,0.08765,0.006,0.15196,0.005,0.2011-0.0203,0.1565-0.062,0.3251-0.11719,0.47328-0.0824,0.16254-0.18295,0.3145-0.29257,0.44983-0.87019,0.67211-1.7154,1.1325-2.3845,1.5861-0.0325,0.03932-0.06123,0.08093-0.06951,0.09753-0.0046,0.01059-0.01142,0.03784-0.01059,0.03324-0.000607,0.01363,0.000599,0.02652,0.0028,0.03932,0.000608,0.0064,0.01059,0.0348-0.03775-0.04908-0.07338-0.07329-0.05745-0.06196-0.06279-0.065-0.06878-0.04235-0.06049-0.04005-0.11946-0.06353,0.7462-0.26915,1.7525-0.68798,2.8706-1.0736,0.09-0.01289,0.1875-0.01961,0.34097-0.0064,0.0839,0.02191,0.11113,0.02118,0.19808,0.07559,0.0922,0.05893,0.0983,0.07789,0.10206,0.0824,0.0733,0.09677,0.0824,0.11265,0.0854,0.1187,0.0514,0.64791,0.0446,1.1-0.0537,1.5226-0.30921,1.3223-0.74923,2.6204-1.4463,3.7491-1.9952,3.2297-3.9344,6.6394-7.0462,8.9173-2.4745,1.8114-5.5984,2.2008-8.4448,3.006-6.1631,1.1212-12.427,0.8649-18.558,0.9904-2.6219,0.05294-5.1841,1.4145-8.003,1.8114-1.4902,0.21017-2.9925-0.12475-4.3226-0.63431-6.8284-2.6166-15.761-8.683-18.644-10.655-0.07034-0.04834-0.25485,0.52544-0.64057,0.88455-0.08563,0.05745-0.18341,0.11038-0.31126,0.15877-0.06445,0.01593-0.14235,0.03177-0.22212,0.02873-0.07881-0.0028-0.16391-0.02569-0.1766-0.0302-0.08056-0.0325-0.163-0.08093-0.1745-0.08922-0.33816-2.2416-0.41142-4.1052-0.37891-5.6558,0.29742,0.13684,0.26938,0.13533,0.2327,0.13382-0.21796-0.02339-0.45747-0.06049-0.66591-0.1429-0.21856-0.08544-0.42118-0.22454-0.59718-0.35911-0.40251-0.42715-0.70817-0.86792-0.96272-1.2701-0.14917-0.21698-0.28911-0.4022-0.44182-0.53149-0.0662-0.05672-0.15-0.09069-0.22386-0.11944-0.10721-0.02495-0.23421-0.0348-0.39631-0.03701-1.6402,0.282-3.2822,0.9027-4.9978,1.5007-1.0315,0.35912-2.1298,0.55114-2.9759,0.55039,0.14145-0.12777,0.0939-0.01059,0.04751,0.09753-0.4084,0.79004-0.86709,1.5574-1.4739,2.2015-0.51773,0.54963-1.1683,0.98057-1.8328,1.3646-0.37212,0.16481-0.76729,0.29409-1.1923,0.37726-0.29765,0.02118-0.59628,0.0099-0.90837-0.04005-0.24632-0.06951-0.48348-0.16556-0.71649-0.29182-0.19785-0.13608-0.38036-0.29259-0.60603-1.0206,0.54162-0.27595,0.62788-0.27822,0.72298-0.28275,0.40433-0.04539,0.81039-0.13382,1.1878-0.26083,0.95002-0.52997,1.8552-1.2701,2.8215-2.0745,0.40251-0.27066,0.83345-0.53602,1.3162-0.68798,0.40961-0.12929,0.84614-0.15877,1.2623-0.1497,0.10985,0.0028,0.23006,0.04152,0.33575,0.07937,0.10781,0.05294,0.19581,0.10585,0.28616,0.17087,1.0726,1.5559,1.7711,3.1005,2.5463,4.484,0.12966,0.23134,0.31096,0.39918,0.45535,0.53073,0.04788,0.03324,0.10638,0.06574,0.13556,0.07863,0.01657,0.0046,0.04199,0.0099,0.46753,0.24041-0.45544,2.095-0.80888,3.7884-0.94949,5.4676-0.000608,0.01206,0.0037,0.04079,0.01096,0.06951,3.3309,2.3981,6.829,5.2574,10.409,7.8203,1.7858,1.2784,3.7698,2.4866,5.9179,2.8933,4.6974,0.88909,9.6892,0.28577,14.675-0.02191,10.61-2.3482,24.96-7.0915,32.031-8.9846,0.54056-0.14516,1.2837,0.68798,1.8319,0.86716,0.47478,0.15498,1.0108,0.38936,1.4637,0.22983,3.6425-1.2852,7.5194-3.0339,11.217-4.6745,0.94881-0.42187,1.7207-1.3125,2.4004-2.1569,1.0229-1.2694,1.9112-2.7323,2.451-4.2806,0.78399-2.2499,1.1666-4.6813,1.2195-7.0741,0.0219-0.9783-0.28881-2.0209-0.54057-2.9848,0.0287,0.054415,0.0643,0.1066,0.0749,0.11492,0.0567,0.050732,0.10206,0.085443,0.11491,0.090691,0.0446,0.018138,0.0862,0.032502,0.10812,0.037013-0.50126,0.15725-1.2278,0.44228-2.0685,0.71672-0.11038,0.01888-0.24117,0.03177-0.43774,0.02118-0.0809-0.01666-0.17615-0.04162-0.25856-0.08995-0.0899-0.05294-0.16935-0.13759-0.17842-0.14969,4.5346-0.76207,8.6716,0.13003,12.742-0.21017,8.881-0.74242,18.13-3.7809,27.336-3.6985,2.1441,0.019611,3.6161,1.9884,5.2529,2.7822,0.27595,0.13382,0.58743,0.14894,1.1938,0.27595,0.22453,0.33794,0.26234,0.42261,0.29182,0.47932,0.0469,0.071816,0.093,0.13533,0.15574,0.19127,0.0483,0.042353,0.12399,0.084706,0.20035,0.12096,0.55114,0.11946,1.2822,0.13306,2.1426,0.31072,0.16708,0.0348,0.32282,0.15196,0.47327,0.25781,0.10962,0.09828,0.22681,0.22908,0.31753,0.3576,0.13911,0.282,0.21774,0.52695,0.27747,0.75754-0.34248,5.014-0.0477,10.079-1.0902,15.043-0.38558,1.8364-1.633,3.3855-2.7156,4.9187-4.2028,4.1317-8.9619,7.5104-13.847,10.615-8.2981,3.4023-16.85,5.9127-25.576,7.4645-0.70008,0.15294-1.379,0.42406-2.1017,0.49406-8.3254,0.80359-16.614,0.12376-24.75-0.60066-0.78476-0.12437-1.4637-0.35941-2.0224-0.55197-0.19506-0.03628-0.38936,0.08802-0.76662-0.06233-1.3563-0.54162-2.3437-1.4123-3.3174-1.9887-0.15272-0.05543-0.3009-0.09359-0.4332-0.11046-1.5483,1.0575-3.5042,2.2067-5.3685,3.3191-0.30846,0.18432-0.59651,0.48144-0.82407,0.82165-0.73938,1.1042-1.2762,2.3761-1.9241,3.0692,0.0151,0.01096,0.02946,0.0221,0.04465,0.03315,0.37651,0.26136,0.75981,0.49284,1.0713,0.62992,0.0037,0.000921-0.01667-0.01565-0.12398,0.0163-0.14667,0.04401-0.16481,0.07964-0.28728,0.19339-0.0028,0.0028-0.0018,0.0083-0.07789,0.1515-0.000921,0.0037,0.0064-0.01805,0.0055-0.01353-0.02348,0.11544-0.02495,0.11129-0.02495,0.11666,0.00092,0.08415,0,0.08388-0.000608,0.07734-0.45966-0.62667-1.1182-1.4488-1.1945-2.1113,0.35912-0.46216,0.3682-0.37598,0.37953-0.30975,0.65396,1.375,1.6383,2.791,2.6242,4.332,0.11039,6.7732-0.02725,13.355-0.97754,19.954-0.87472,2.6638-2.0647,5.213-3.5148,7.6128-3.2695,3.8168-7.1192,6.9238-11.106,10.114-5.2571-0.68337-10.335-1.1297-15.444-1.7167-7.8429-2.0953-15.183-5.4655-22.652-9.4545,0.37182-0.45777,0.43268-0.48287,0.47781-0.50291,0.10781-0.05616,0.18817-0.10933,0.25486-0.16633,0.10161-0.13314,0.21328-0.35911,0.40462-0.69456,0.11016-0.13586,0.22326-0.2637,0.35322-0.35057,0.23891-0.15914,0.49111-0.2572,0.73449-0.339,0.163-0.04079,0.32895-0.06648,0.53004-0.07172,0.09988,0.0099,0.23067,0.0383,0.32548,0.07145,0.207,0.11605,0.33257,0.21879,0.39842,0.27579,0.0028,0.0028-0.0092-0.000921,0.0028,0.0037-0.000608-0.000608-0.000921-0.000921-0.0028-0.0018,0.04106-0.0037,0.10932,0.0083,0.16987-0.03453,1.0144-0.71914,2.0616-1.7377,3.2517-2.7395,0.09511-0.05285,0.20942-0.10395,0.35322-0.14614,0.09714-0.01538,0.16247-0.0198,0.26075-0.01685,0.10131,0.01538,0.19226,0.03987,0.27996,0.07421,0.30748,0.21139,0.48287,0.39155,0.59158,0.49874,0.0055,0.0046,0.01888,0.01298-0.0046,0.0028,0.94034-0.05994,2.018-0.13435,3.0687-0.29765,3.1384-1.4858,6.1844-3.4801,9.1875-5.5521,0.04051-0.03011,0.05966-0.04898,0.07265-0.06316,0.0028-0.0028,0.0046-0.0064,0.0028-0.0018,0.00023-0.000608,0-0.000921-0.000304,0.0055-0.000304-0.0046-0.0037-0.02541-0.01188-0.05257-0.26491-0.39253-0.68073-0.82044-1.111-1.3089-0.16565-0.1884-0.30331-0.42201-0.4332-0.69902-0.03222-0.1066-0.05377-0.20852-0.06767-0.34286,0.000921-0.09097,0.01123-0.189,0.03158-0.28555,0.03094-0.09632,0.0685-0.1819,0.11817-0.2702,0.08646-0.11877,0.17032-0.21003,0.27459-0.30218,0.12375-0.08323,0.22832-0.13873,0.3588-0.19249,0.15687-0.04383,0.31724-0.07126,0.47169-0.0836,1.1641,0.18901,2.1786,0.52628,3.0506,0.74302,0.03729-0.000921,0.05929-0.0055,0.06611-0.0064-0.00092,0.000598-0.01565,0.0083-0.02265,0.0139-0.02247,0.02247-0.0028,0.000921-0.02302,0.02541-0.01068,0.01952-0.0046,0.01952-0.0064,0.01151-0.27882-2.118-0.89514-4.5816-1.3106-7.1383,0.16006-0.90133,0.45506-1.7149,0.73713-2.4562,0.14206-0.49587,0.22681-0.98994,0.25426-1.5195,0.02302-0.19135,0.06556-0.37212,0.12315-0.54102,0.68194-1.0354,1.4566-1.8499,2.1166-2.6227,0.05727-0.09896,0.09958-0.19021,0.12407-0.26582,0.0074-0.04079,0.01059-0.08213,0.0098-0.10924-0.0028-0.02302-0.0083-0.04558-0.01151-0.05405-0.0046-0.01151-0.02247-0.03959-0.0348-0.05441-0.22084-0.1565-0.5847-0.33462-1.0008-0.56407-0.1373-0.0998-0.26929-0.21766-0.39072-0.35525-0.0767-0.11107-0.14176-0.22916-0.19369-0.35352-0.04963-0.1748-0.07651-0.34732-0.0836-0.49407-0.0028-0.04843-0.01418-0.10244-0.03241-0.16217-0.83374-1.1216-1.9368-2.2303-3.0262-3.4685-0.08738-0.14418-0.16776-0.30778-0.2327-0.49912-0.01446-0.07034-0.02182-0.12785-0.02016-0.26666,1.005-1.0785,1.9722-1.8384,2.7988-2.5988,0.03904-0.03609,0.05312-0.06997,0.06114-0.08213-0.0064,0.02716-0.0028,0.0095-0.0074,0.05018-7.762,0.134-15.934-0.62-23.979-2.31-2.517-0.875-4.953-1.991-7.23-3.41-0.901-0.722-1.746-1.528-2.483-2.445-0.2876-0.484-0.5206-1.002-0.6916-1.543-0.2088-2.195-0.1733-4.363,0.0865-6.526,0.4536-1.86,1.1131-3.661,1.9701-5.376,7.508-8.622,12.246-12.723,12.287-12.664"/>
	</g>
</svg>