<?xml version="1.0" encoding="utf-8"?>
<!-- Generator: Adobe Illustrator 16.0.0, SVG Export Plug-In . SVG Version: 6.00 Build 0)  -->
<!DOCTYPE svg PUBLIC "-//W3C//DTD SVG 1.1//EN" "http://www.w3.org/Graphics/SVG/1.1/DTD/svg11.dtd">
<svg version="1.1" id="Layer_1" xmlns="http://www.w3.org/2000/svg" xmlns:xlink="http://www.w3.org/1999/xlink" x="0px" y="0px"
	 width="126px" height="126px" viewBox="0 0 126 126" enable-background="new 0 0 126 126" xml:space="preserve">
<g>
	<g>
		<path fill="#8888ff" d="M99.874,36.931c-0.006-0.468-0.153-0.93-0.476-1.295L79.73,13.171c-0.004-0.006-0.01-0.008-0.016-0.014
			c-0.117-0.131-0.252-0.239-0.396-0.334c-0.043-0.028-0.086-0.053-0.131-0.078c-0.127-0.068-0.258-0.124-0.395-0.165
			c-0.037-0.011-0.07-0.026-0.107-0.036c-0.149-0.035-0.303-0.057-0.459-0.057H29.893c-2.205,0-4,1.795-4,4v94c0,2.207,1.795,4,4,4
			h66c2.207,0,4-1.793,4-4V37.155C99.893,37.08,99.881,37.005,99.874,36.931z M29.893,80.405V16.488h46.333v20.466
			c0,1.104,0.896,2,2,2h17.666l0.002,41.451H29.893z"/>
		<path fill="#8888ff" d="M44.961,89.814h-0.065c-0.323,1.291-0.645,2.937-1,4.195l-1.292,4.614h4.809l-1.356-4.614
			C45.671,92.718,45.283,91.105,44.961,89.814z"/>
		<path fill="#8888ff" d="M82.326,89.686c-1,0-1.678,0.097-2.033,0.193V96.3c0.42,0.099,0.936,0.13,1.646,0.13c2.613,0,4.228-1.322,4.228-3.549
			C86.167,90.879,84.779,89.686,82.326,89.686z"/>
		<rect fill="none" x="31.893" y="40.405" width="66.357" height="28.095"/>
	</g>
	<g>
		<path fill="#8888ff" d="M36.238,53.264l18.23-9.407v4.472l-13.787,6.708v0.084l13.787,6.707V66.3l-18.23-9.408V53.264z"/>
		<path fill="#8888ff" d="M57.288,67.988l8.13-30.584h3.835l-8.128,30.584H57.288z"/>
		<path fill="#8888ff" d="M89.689,57.017L71.46,66.3v-4.473l14.091-6.707v-0.084L71.46,48.329v-4.472l18.229,9.281V57.017z"/>
	</g>
</g>
<rect x="28.25" y="84.66" fill="none" width="87.728" height="31.34"/>
<text transform="matrix(1 0 0 1 28.25 107.46)" fill="#ffffff" font-family="Helvetica" font-size="30">PHP</text>
</svg>
